<svg width="100" height="28" viewBox="0 0 100 28" fill="none" xmlns="http://www.w3.org/2000/svg">
<path d="M48.0147 4.15025H45.0735C44.4853 4.15025 44.3382 3.8622 44.3382 3.35812V0.47767C44.3382 -0.314454 43.6029 0.117614 43.6029 0.117614L41.1765 2.49399C40.4412 3.28611 40.5147 4.15025 40.5147 4.15025V5.87852L36.6912 9.62311C36.3971 9.5511 36.1029 9.47908 35.8088 9.47908C34.1176 9.47908 32.7206 10.8473 32.7206 12.5036C32.7206 14.1598 34.1176 15.528 35.8088 15.528C37.5 15.528 38.8971 14.1598 38.8971 12.5036C38.8971 12.2155 38.897 11.9995 38.8235 11.7114L42.7206 7.89483H44.4118C44.4118 7.89483 45.2941 7.96685 46.1029 7.24673L48.5294 4.87036C48.4559 4.87036 48.8235 4.15025 48.0147 4.15025Z" fill="#FC2C38"/>
<path d="M43.75 9.62306C42.9412 9.76708 42.4265 10.5592 42.5735 11.3513C42.6471 11.7834 42.7206 12.2155 42.7206 12.6475C42.7206 16.4641 39.6323 19.5606 35.7353 19.5606C34.1176 19.5606 32.6471 19.0565 31.3971 18.0484C30.2206 17.1122 29.3382 15.744 28.9706 14.2318C28.8235 13.5837 28.3088 13.1516 27.7206 13.0796C27.2794 13.0076 26.9118 13.0796 26.8382 13.0796C25.5882 13.2956 24.5588 13.6557 23.6029 14.0878C23.6029 14.0157 23.6029 13.9437 23.6029 13.9437C23.6765 12.8636 23.6765 12.4315 23.75 11.4233C23.75 11.2793 23.75 11.2073 23.8235 11.0633C24.1176 9.55104 24.5588 8.68691 24.4853 8.03881C24.4853 7.75076 24.4118 7.53473 24.2647 7.24668C24.1176 6.95864 23.8971 6.81461 23.6765 6.67059C23.6029 6.59858 23.5294 6.52657 23.3823 6.52657C23.3088 6.52657 23.3088 6.45456 23.2353 6.45456C22.6471 6.23852 22.0588 6.38255 21.6912 6.88663C21.3235 7.31869 21.25 7.82277 21.1029 8.39886C20.8823 9.263 20.6618 10.5592 20.4412 11.3513C20.2206 11.9994 19.8529 12.7916 19.3382 13.1516C18.8235 13.5117 18.3088 13.3676 18.0882 12.6475C17.8676 11.7834 17.9412 10.8472 18.0147 9.98311C18.0882 9.40702 18.5294 9.33501 18.6765 8.32685C18.8235 7.17467 18.1618 6.45456 17.1323 6.31054C16.3971 6.23852 15.8088 6.52657 15.4412 7.24668C15.0735 7.9668 14.9265 8.75892 14.9265 9.55104C14.8529 10.1991 14.9265 10.9193 14.9265 11.5674C14.9265 11.6394 14.8529 11.6394 14.8529 11.7114C14.3382 12.6475 13.3088 13.5837 13.0882 13.4397C12.9412 13.3676 13.0147 13.0796 13.0147 12.9356C13.0147 11.8554 13.1618 9.83909 13.3088 8.39886C13.3824 7.53473 12.8676 6.81461 11.7647 6.81461C11.0294 6.81461 10.5882 7.24668 10.2206 7.67875C9.55882 8.39886 8.97059 9.263 8.45588 9.9111C8.38235 9.98311 8.23529 10.1991 8.08823 10.1271C7.94117 10.0551 7.94117 9.83909 7.94117 9.69507C7.94117 8.97495 7.94117 9.11898 7.94117 8.39886C7.94117 8.25484 7.94117 7.89478 7.86765 7.60674C7.79412 6.81461 6.98529 6.45456 6.25 6.52657C5.80882 6.59858 5.44118 6.88663 5.22059 7.24668C4.85294 7.82277 4.70588 8.18283 4.33823 8.75892C4.11765 9.19099 4.04412 9.33501 3.89706 9.55104C3.75 9.76708 3.60294 9.9111 3.45588 9.9111C3.23529 9.9111 3.23529 9.69507 3.23529 9.69507C3.23529 9.33501 3.23529 8.6149 3.23529 8.47088C3.23529 8.03881 3.30882 7.10266 2.5 6.95864C0.294118 7.03065 0 9.19099 0 10.2712C0 11.4233 0 12.2155 0 13.3676C0 14.2318 0 14.7359 0.0735294 15.6C0.147059 16.6082 0.955882 17.1122 1.83823 16.8242C2.27941 16.6802 2.57353 16.3201 2.79412 15.888C3.01471 15.456 3.38235 14.4478 3.60294 13.9437C3.82353 13.3676 4.11765 12.7195 4.33823 12.2875C4.41176 12.1435 4.63235 11.9994 4.85294 11.9994C5.07353 11.9994 5.14706 12.1435 5.14706 12.2875C5.14706 12.7916 5.07353 13.2956 5.07353 13.7997C5 14.8079 5.07353 15.528 5.22059 15.816C5.29412 16.0321 5.58823 16.3921 5.95588 16.5361C6.69118 16.8242 7.5 16.5361 7.86765 15.816C8.38235 14.8079 8.52941 13.9437 9.04412 12.8636C9.19117 12.5755 9.33823 12.1435 9.77941 12.1435C9.92647 12.1435 10.2206 12.2155 10.2206 12.4315C10.2206 12.6475 10.1471 14.4478 10.2941 15.3119C10.4412 16.0321 11.1029 16.8242 12.5 16.7522C12.8676 16.7522 13.2353 16.5361 13.6029 16.3201C14.0441 16.1761 14.5588 15.6 15.2206 14.5918C15.4412 15.3119 15.9559 15.888 16.1765 16.2481C17.0588 17.4003 18.3823 17.4003 19.4118 16.4641C19.9265 16.0321 20.1471 15.6 20.2941 15.1679C20.2941 15.6 20.2206 16.0321 20.2206 16.4641C17.1324 18.4804 15.5147 20.4968 15.3676 22.5851C15.2206 24.4574 16.25 26.3297 18.3088 27.5539C18.8235 27.8419 19.3382 28.058 19.7794 27.9859C20.0735 27.9859 20.3676 27.9139 20.6618 27.7699C22.4265 26.9058 22.7206 22.297 23.1618 18.1924V17.9764C23.6029 17.6163 24.2647 17.1122 25.0735 16.7522C25.1471 16.6802 25.5147 16.5361 25.6618 16.5361C26.1029 16.4641 26.3971 16.5361 26.6176 16.9682C26.6176 17.0402 26.7647 17.2563 26.7647 17.2563C27.4265 18.4084 28.2353 19.4886 29.3382 20.3527C31.1029 21.721 33.3088 22.5131 35.5147 22.5131C40.9559 22.5131 45.4412 18.0484 45.4412 12.5755C45.4412 11.9274 45.3676 11.3513 45.2941 10.7032C45.2941 9.98311 44.5588 9.40702 43.75 9.62306ZM19.6323 23.5933C19.5588 23.8093 19.4118 23.8093 19.1912 23.6653C18.6765 23.2332 18.5294 22.6571 18.5294 22.225C18.5294 21.937 18.75 21.1449 20 19.9927C20.0735 20.8568 19.9265 22.8011 19.6323 23.5933Z" fill="#FC2C38"/>
<path d="M27.5735 9.9111C27.7941 10.0551 28.0147 10.0551 28.3088 10.0551C28.8235 10.0551 29.3382 9.76708 29.6324 9.263C30.8088 7.10266 33.1618 5.73445 35.7353 5.73445C36.25 5.73445 36.6912 5.80646 37.2059 5.87847C38.0147 6.02249 38.8235 5.51841 38.9706 4.72629C39.1176 3.93416 38.6029 3.14204 37.7941 2.99802C37.1324 2.85399 36.3971 2.78198 35.6618 2.78198C31.9853 2.78198 28.6765 4.7983 26.9118 7.9668C26.6177 8.68691 26.9118 9.55105 27.5735 9.9111Z" fill="#FC2C38"/>
<path d="M51.3235 16.5363V8.90308H48.5294V7.1748H56.1029V8.90308H53.3088V16.5363H51.3235Z" fill="#333333"/>
<path d="M62.5 16.5363L61.9117 14.952H57.7941L57.2794 16.5363H54.9265L58.6029 7.1748H61.1765L64.8529 16.5363H62.5ZM59.9265 9.19112L58.4559 13.2238H61.397L59.9265 9.19112Z" fill="#333333"/>
<path d="M74.3382 11.8555C74.3382 8.90306 76.6176 7.03076 79.4117 7.03076C81.397 7.03076 82.647 8.03892 83.3823 9.11909L81.6911 9.98322C81.25 9.33512 80.4411 8.75903 79.4117 8.75903C77.647 8.75903 76.397 10.0552 76.397 11.8555C76.397 13.6558 77.647 14.952 79.4117 14.952C80.2205 14.952 81.0294 14.5919 81.4706 14.2319V13.0797H78.9706V11.3514H83.5294V14.952C82.5735 16.0322 81.1764 16.7523 79.4853 16.7523C76.6176 16.7523 74.3382 14.808 74.3382 11.8555Z" fill="#333333"/>
<path d="M95.147 16.5363V8.90308H92.3529V7.1748H100V8.90308H97.2058V16.5363H95.147Z" fill="#333333"/>
<path d="M73.2353 10.1993C73.2353 8.47101 71.9853 7.1748 70 7.1748H65.5147V16.5363H67.6471V13.2238H69.3382L71.3971 16.5363H73.75L71.3971 12.9357C72.4265 12.7197 73.2353 11.8555 73.2353 10.1993ZM69.7059 11.4235H67.6471V8.90308H69.7794C70.5882 8.90308 71.1765 9.40716 71.1765 10.1993C71.1765 10.9914 70.5882 11.4235 69.7059 11.4235Z" fill="#333333"/>
<path d="M84.7794 16.5363H91.5441V14.808H86.8382V12.6477H91.0294V10.9194H86.8382V8.90308H91.5441V7.1748H84.7794V16.5363Z" fill="#333333"/>
</svg>
