<svg width="230" height="34" viewBox="0 0 230 34" fill="none" xmlns="http://www.w3.org/2000/svg">
<path d="M124.729 32.9683L124.735 32.4684L124.729 32.9683ZM0.904831 2.50914C0.633728 2.56171 0.456573 2.82408 0.50914 3.09518L1.36572 7.5129C1.41829 7.78399 1.68066 7.96114 1.95177 7.90858C2.22285 7.85601 2.40001 7.59364 2.34744 7.32254L1.58603 3.39568L5.51289 2.63427C5.784 2.58171 5.96114 2.31933 5.90858 2.04823C5.85602 1.77714 5.59364 1.59999 5.32254 1.65255L0.904831 2.50914ZM229 10.992C228.65 10.6348 228.65 10.6348 228.65 10.6347C228.65 10.6347 228.65 10.6346 228.65 10.6346C228.65 10.6346 228.65 10.6345 228.65 10.6345C228.65 10.6345 228.65 10.6345 228.65 10.6346C228.65 10.6347 228.65 10.6352 228.649 10.6359C228.648 10.6372 228.645 10.6396 228.642 10.643C228.634 10.6499 228.623 10.6607 228.607 10.6755C228.576 10.705 228.526 10.7503 228.459 10.8103C228.324 10.9303 228.117 11.1094 227.832 11.3404C227.261 11.8024 226.378 12.4719 225.141 13.2907L225.693 14.1246C226.957 13.2881 227.865 12.5998 228.461 12.1177C228.759 11.8767 228.978 11.6873 229.125 11.5567C229.198 11.4915 229.253 11.4409 229.29 11.406C229.309 11.3886 229.323 11.375 229.333 11.3655C229.338 11.3607 229.342 11.357 229.345 11.3542C229.346 11.3529 229.347 11.3517 229.348 11.3509C229.349 11.3505 229.349 11.3501 229.349 11.3498C229.349 11.3496 229.349 11.3495 229.35 11.3494C229.35 11.3493 229.35 11.3493 229.35 11.3492C229.35 11.3492 229.35 11.3491 229 10.992ZM217.328 17.6502C214.996 18.7676 212.257 19.9479 209.072 21.1351L209.421 22.0721C212.634 20.8747 215.4 19.6827 217.76 18.5521L217.328 17.6502ZM200.525 23.9761C197.86 24.7646 194.975 25.5355 191.856 26.2712L192.086 27.2445C195.222 26.5046 198.126 25.7289 200.809 24.935L200.525 23.9761ZM183.055 28.1236C180.247 28.6473 177.285 29.1391 174.164 29.5904L174.307 30.5801C177.442 30.1269 180.417 29.6329 183.238 29.1066L183.055 28.1236ZM165.231 30.716C162.364 31.0264 159.381 31.3026 156.278 31.5395L156.354 32.5366C159.468 32.2989 162.461 32.0217 165.338 31.7102L165.231 30.716ZM147.278 32.0957C144.37 32.2346 141.368 32.3399 138.269 32.4082L138.291 33.4079C141.398 33.3395 144.409 33.2339 147.326 33.0945L147.278 32.0957ZM129.28 32.4996C127.785 32.4977 126.271 32.4874 124.735 32.4684L124.722 33.4683C126.262 33.4873 127.78 33.4977 129.279 33.4996L129.28 32.4996ZM124.735 32.4684C123.528 32.4535 122.329 32.4323 121.138 32.4051L121.116 33.4048C122.309 33.4321 123.512 33.4533 124.722 33.4683L124.735 32.4684ZM114.004 32.1663C111.591 32.0598 109.215 31.9285 106.876 31.7743L106.81 32.7721C109.156 32.9268 111.539 33.0585 113.96 33.1653L114.004 32.1663ZM99.7584 31.2254C97.3482 31.0125 94.9805 30.7754 92.6557 30.5163L92.5449 31.5101C94.8773 31.77 97.2525 32.0079 99.6703 32.2216L99.7584 31.2254ZM85.5735 29.6433C83.1723 29.3186 80.8206 28.971 78.5187 28.6032L78.3609 29.5907C80.6707 29.9598 83.0303 30.3085 85.4395 30.6343L85.5735 29.6433ZM71.5004 27.3932C69.1017 26.9489 66.7627 26.4838 64.4835 26.0011L64.2763 26.9794C66.5638 27.4638 68.9112 27.9306 71.3182 28.3765L71.5004 27.3932ZM57.5142 24.4295C55.1413 23.8612 52.8414 23.2759 50.6149 22.6782L50.3556 23.644C52.5908 24.2441 54.8995 24.8316 57.2813 25.402L57.5142 24.4295ZM43.7339 20.7262C41.3761 20.0207 39.1143 19.3052 36.9489 18.5865L36.6339 19.5356C38.8085 20.2574 41.0798 20.9758 43.4472 21.6842L43.7339 20.7262ZM30.1954 16.2272C27.8346 15.3599 25.6155 14.4985 23.5392 13.6548L23.1628 14.5813C25.2493 15.4291 27.479 16.2946 29.8506 17.1659L30.1954 16.2272ZM16.9871 10.8519C14.563 9.75986 12.4155 8.72779 10.5474 7.78702L10.0976 8.68016C11.9783 9.62725 14.1388 10.6656 16.5764 11.7636L16.9871 10.8519ZM4.29379 4.42555C3.28763 3.84395 2.53185 3.38243 2.02873 3.06707C1.77719 2.90939 1.58881 2.78826 1.46388 2.70693C1.40143 2.66626 1.35483 2.63555 1.32414 2.61519C1.30879 2.60501 1.29742 2.59743 1.29002 2.59248C1.28633 2.59001 1.28363 2.58819 1.28192 2.58705C1.28107 2.58647 1.28046 2.58607 1.28011 2.58583C1.27994 2.58571 1.27982 2.58563 1.27975 2.58559C1.27974 2.58558 1.27972 2.58557 1.27972 2.58557C1.27972 2.58557 1.27974 2.58558 1.27975 2.58558C1.27977 2.5856 1.27979 2.58561 1 3C0.720215 3.41439 0.720245 3.41441 0.720276 3.41443C0.720291 3.41444 0.720337 3.41447 0.720367 3.41449C0.720428 3.41454 0.72052 3.41459 0.720612 3.41466C0.72081 3.41479 0.721069 3.41497 0.72139 3.41518C0.722031 3.41561 0.722916 3.41621 0.72406 3.41698C0.726334 3.41851 0.729614 3.42071 0.733887 3.42357C0.742432 3.42929 0.754959 3.43765 0.771469 3.4486C0.804504 3.4705 0.853439 3.50275 0.918274 3.54496C1.04794 3.62938 1.24115 3.75361 1.49762 3.91437C2.01057 4.2359 2.77658 4.70359 3.79335 5.29132L4.29379 4.42555ZM124.729 32.9683L124.741 31.9684L124.729 32.9683ZM0.809647 2.01828C0.267456 2.12341 -0.0868378 2.64817 0.01828 3.19035L1.73146 12.0258C1.83659 12.568 2.36134 12.9223 2.90353 12.8172C3.44571 12.712 3.80002 12.1873 3.69489 11.6451L2.17207 3.79136L10.0258 2.26854C10.568 2.16341 10.9223 1.63866 10.8172 1.09647C10.712 0.554283 10.1873 0.199978 9.6451 0.305107L0.809647 2.01828ZM229 10.992C228.3 10.2777 228.3 10.2776 228.3 10.2774C228.3 10.2774 228.301 10.2773 228.301 10.2772C228.301 10.2771 228.301 10.277 228.301 10.2768C228.301 10.2766 228.301 10.2765 228.301 10.2764C228.302 10.2762 228.302 10.2763 228.301 10.2767C228.3 10.2774 228.299 10.2791 228.296 10.2818C228.29 10.2873 228.28 10.2968 228.266 10.3102C228.237 10.3371 228.191 10.3797 228.126 10.437C227.998 10.5518 227.796 10.7258 227.517 10.9518C226.959 11.4037 226.089 12.0637 224.865 12.8737L225.969 14.5415C227.246 13.6962 228.167 12.9984 228.775 12.5064C229.079 12.2603 229.305 12.0658 229.457 11.93C229.533 11.8621 229.591 11.8089 229.631 11.7713C229.652 11.7525 229.667 11.7376 229.679 11.7267C229.684 11.7213 229.689 11.7168 229.692 11.7134C229.694 11.7117 229.696 11.7103 229.697 11.7091C229.698 11.7085 229.698 11.7079 229.699 11.7075C229.699 11.7072 229.699 11.707 229.699 11.7068C229.699 11.7067 229.7 11.7066 229.7 11.7065C229.7 11.7064 229.7 11.7062 229 10.992ZM217.112 17.1993C214.793 18.31 212.069 19.4845 208.897 20.6666L209.596 22.5406C212.822 21.338 215.602 20.1402 217.976 19.003L217.112 17.1993ZM200.383 23.4967C197.728 24.2824 194.851 25.0509 191.742 25.7846L192.201 27.7312C195.346 26.9891 198.258 26.211 200.951 25.4145L200.383 23.4967ZM182.963 27.6321C180.162 28.1545 177.207 28.6452 174.092 29.0956L174.379 31.075C177.52 30.6208 180.501 30.1257 183.33 29.5982L182.963 27.6321ZM165.177 30.2189C162.316 30.5287 159.338 30.8044 156.24 31.0409L156.392 33.0351C159.511 32.797 162.51 32.5194 165.392 32.2073L165.177 30.2189ZM147.254 31.5962C144.351 31.735 141.353 31.8401 138.258 31.9083L138.302 33.9078C141.413 33.8393 144.429 33.7335 147.35 33.594L147.254 31.5962ZM129.28 31.9997C127.788 31.9977 126.275 31.9874 124.741 31.9684L124.716 33.9683C126.257 33.9873 127.778 33.9977 129.278 33.9996L129.28 31.9997ZM124.741 31.9684C123.535 31.9535 122.338 31.9324 121.15 31.9052L121.104 33.9047C122.3 33.932 123.504 33.9533 124.716 33.9683L124.741 31.9684ZM114.026 31.6668C111.616 31.5604 109.244 31.4294 106.909 31.2754L106.777 33.271C109.127 33.426 111.514 33.5578 113.938 33.6648L114.026 31.6668ZM99.8024 30.7274C97.396 30.5147 95.0322 30.278 92.7111 30.0194L92.4896 32.007C94.8257 32.2674 97.2047 32.5056 99.6263 32.7196L99.8024 30.7274ZM85.6405 29.1478C83.2433 28.8237 80.8956 28.4767 78.5976 28.1095L78.2821 30.0844C80.5957 30.4541 82.9593 30.8035 85.3725 31.1298L85.6405 29.1478ZM71.5914 26.9015C69.197 26.4581 66.8622 25.9938 64.5871 25.5119L64.1727 27.4686C66.4643 27.9539 68.8159 28.4215 71.2272 28.8681L71.5914 26.9015ZM57.6307 23.9432C55.2622 23.376 52.9667 22.7919 50.7446 22.1953L50.226 24.1269C52.4655 24.7281 54.7786 25.3168 57.1649 25.8882L57.6307 23.9432ZM43.8772 20.2472C41.5243 19.5431 39.2671 18.8291 37.1064 18.112L36.4764 20.0102C38.6557 20.7335 40.9317 21.4534 43.3039 22.1633L43.8772 20.2472ZM30.3678 15.7579C28.0124 14.8925 25.7986 14.0332 23.7274 13.1916L22.9745 15.0445C25.0663 15.8944 27.3011 16.7619 29.6782 17.6352L30.3678 15.7579ZM17.1925 10.396C14.7751 9.30702 12.6341 8.27805 10.7723 7.34045L9.87273 9.12674C11.7597 10.077 13.9267 11.1184 16.371 12.2195L17.1925 10.396ZM4.54402 3.99266C3.54314 3.41413 2.79247 2.95569 2.2943 2.64342C2.04521 2.48728 1.85924 2.36769 1.73669 2.28791C1.67542 2.24801 1.63 2.21807 1.60046 2.19849C1.58571 2.1887 1.57491 2.18149 1.56808 2.17693C1.56468 2.17465 1.56227 2.17303 1.56085 2.17208C1.56013 2.1716 1.55968 2.17129 1.55946 2.17115C1.55936 2.17108 1.55931 2.17105 1.55934 2.17106C1.55934 2.17107 1.55937 2.17108 1.55942 2.17111C1.55943 2.17112 1.55948 2.17115 1.55948 2.17116C1.55952 2.17119 1.55959 2.17122 1 3C0.440414 3.82878 0.440475 3.82882 0.440536 3.82886C0.440567 3.82887 0.440628 3.82892 0.440689 3.82895C0.440781 3.82902 0.440903 3.8291 0.44104 3.82919C0.441299 3.82937 0.441635 3.8296 0.442032 3.82986C0.44281 3.83039 0.443848 3.83109 0.445129 3.83195C0.447693 3.83367 0.451263 3.83606 0.455826 3.83912C0.464935 3.84522 0.478058 3.85397 0.495148 3.8653C0.529327 3.88797 0.579453 3.921 0.645462 3.96398C0.777512 4.04995 0.973129 4.17571 1.23207 4.33802C1.74994 4.66264 2.52106 5.13342 3.54314 5.72421L4.54402 3.99266Z" fill="#333333"/>
</svg>
