<svg width="16" height="16" viewBox="0 0 16 16" fill="none" xmlns="http://www.w3.org/2000/svg">
<path d="M8.26666 2.93333C5.32266 2.93333 2.93333 5.32267 2.93333 8.26667C2.93333 11.2107 5.32266 13.6 8.26666 13.6C11.2107 13.6 13.6 11.2107 13.6 8.26667C13.6 5.32267 11.2107 2.93333 8.26666 2.93333ZM8.26666 12.5333C5.90933 12.5333 3.99999 10.624 3.99999 8.26667C3.99999 5.90933 5.90933 4 8.26666 4C10.624 4 12.5333 5.90933 12.5333 8.26667C12.5333 10.624 10.624 12.5333 8.26666 12.5333Z" fill="#0225C1"/>
<path d="M8.26666 10.9333C9.73942 10.9333 10.9333 9.73942 10.9333 8.26666C10.9333 6.79391 9.73942 5.6 8.26666 5.6C6.79391 5.6 5.6 6.79391 5.6 8.26666C5.6 9.73942 6.79391 10.9333 8.26666 10.9333Z" fill="#0225C1"/>
</svg>
