<svg width="114" height="82" viewBox="0 0 114 82" fill="none" xmlns="http://www.w3.org/2000/svg">
<path d="M23.4842 13.9787L23.7688 14.3897L23.4842 13.9787ZM110.934 15.0637C111.197 14.979 111.341 14.6972 111.256 14.4344L109.876 10.1513C109.791 9.88849 109.51 9.74409 109.247 9.82879C108.984 9.91349 108.839 10.1952 108.924 10.4581L110.151 14.2652L106.344 15.4922C106.081 15.5769 105.937 15.8586 106.021 16.1214C106.106 16.3843 106.388 16.5287 106.651 16.444L110.934 15.0637ZM11.4223 80.3923C11.8513 80.1355 11.8513 80.1356 11.8514 80.1356C11.8514 80.1356 11.8514 80.1356 11.8514 80.1356C11.8514 80.1356 11.8514 80.1356 11.8514 80.1356C11.8513 80.1356 11.8513 80.1355 11.8512 80.1353C11.851 80.135 11.8507 80.1344 11.8502 80.1336C11.8492 80.132 11.8477 80.1295 11.8456 80.126C11.8415 80.119 11.8351 80.1082 11.8266 80.0936C11.8095 80.0645 11.7839 80.0204 11.7503 79.9618C11.683 79.8444 11.5839 79.6688 11.4579 79.4383C11.2058 78.9771 10.8462 78.2961 10.4189 77.4218L9.52044 77.8609C9.95492 78.75 10.3216 79.4445 10.5804 79.9179C10.7098 80.1546 10.8122 80.3361 10.8827 80.459C10.9179 80.5205 10.9452 80.5673 10.9638 80.5991C10.9731 80.615 10.9803 80.6272 10.9852 80.6355C10.9876 80.6397 10.9895 80.6429 10.9909 80.6451C10.9916 80.6462 10.9921 80.6471 10.9925 80.6478C10.9927 80.6481 10.9928 80.6483 10.9929 80.6485C10.993 80.6486 10.993 80.6487 10.9931 80.6488C10.9931 80.6488 10.9931 80.6489 10.9931 80.6489C10.9932 80.6489 10.9932 80.649 11.4223 80.3923ZM7.9713 71.7417C7.30933 69.9912 6.64344 68.0169 6.04615 65.8673L5.08265 66.135C5.68892 68.317 6.36455 70.32 7.03594 72.0954L7.9713 71.7417ZM4.68325 59.8473C4.34084 57.8814 4.08574 55.8284 3.95656 53.714L2.95842 53.775C3.09008 55.9299 3.34991 58.0199 3.69808 60.0189L4.68325 59.8473ZM3.96177 47.553C4.09322 45.5434 4.35928 43.5035 4.78892 41.4524L3.81017 41.2474C3.37022 43.3477 3.09821 45.4344 2.9639 47.4877L3.96177 47.553ZM6.4995 35.5437C7.19903 33.6759 8.05688 31.8132 9.0951 29.9701L8.22382 29.4793C7.1597 31.3684 6.28022 33.278 5.56302 35.193L6.4995 35.5437ZM12.5039 24.8559C13.7132 23.301 15.0741 21.7701 16.6013 20.2728L15.9012 19.5588C14.3427 21.0868 12.9519 22.6511 11.7145 24.242L12.5039 24.8559ZM21.2593 16.2256C22.0614 15.6054 22.8975 14.9932 23.7688 14.3897L23.1995 13.5676C22.3141 14.1809 21.4638 14.8034 20.6476 15.4345L21.2593 16.2256ZM23.7688 14.3897C24.8147 13.6654 25.872 12.9833 26.9394 12.3416L26.4241 11.4846C25.3385 12.1372 24.2631 12.831 23.1995 13.5676L23.7688 14.3897ZM33.6378 8.87942C35.9714 7.85603 38.3363 6.99658 40.7181 6.28378L40.4314 5.32576C38.0122 6.04974 35.6088 6.92311 33.2362 7.96362L33.6378 8.87942ZM48.0599 4.53921C50.5607 4.09037 53.064 3.78146 55.5533 3.593L55.4778 2.59585C52.9568 2.78671 50.4197 3.0997 47.8833 3.55494L48.0599 4.53921ZM63.1089 3.37161C65.6661 3.41033 68.1893 3.5592 70.6596 3.79579L70.755 2.80034C68.26 2.5614 65.71 2.41088 63.1241 2.37173L63.1089 3.37161ZM78.1699 4.79261C80.7429 5.22663 83.2277 5.7384 85.5989 6.29795L85.8286 5.32468C83.4381 4.76059 80.9322 4.24442 78.3362 3.80654L78.1699 4.79261ZM92.9091 8.25709C95.5467 9.04805 97.9599 9.86272 100.098 10.641L100.44 9.70126C98.2855 8.91707 95.8541 8.09622 93.1964 7.29923L92.9091 8.25709ZM107.132 13.4457C108.235 13.928 109.092 14.3257 109.673 14.6024C109.963 14.7408 110.184 14.8489 110.332 14.9221C110.405 14.9587 110.461 14.9866 110.498 15.0053C110.517 15.0146 110.53 15.0216 110.539 15.0262C110.544 15.0285 110.547 15.0302 110.549 15.0313C110.551 15.0318 110.551 15.0322 110.552 15.0325C110.552 15.0326 110.552 15.0327 110.552 15.0327C110.552 15.0327 110.552 15.0327 110.552 15.0327C110.552 15.0327 110.552 15.0327 110.552 15.0327C110.552 15.0327 110.552 15.0327 110.78 14.5878C111.008 14.1428 111.008 14.1428 111.008 14.1428C111.008 14.1428 111.008 14.1428 111.008 14.1427C111.008 14.1427 111.008 14.1427 111.008 14.1426C111.008 14.1425 111.008 14.1423 111.007 14.1422C111.006 14.1418 111.005 14.1413 111.004 14.1406C111.001 14.1392 110.998 14.1373 110.993 14.1347C110.983 14.1296 110.968 14.1221 110.948 14.1123C110.909 14.0926 110.851 14.0636 110.775 14.026C110.623 13.9506 110.398 13.8404 110.103 13.6998C109.513 13.4187 108.646 13.0164 107.533 12.5294L107.132 13.4457ZM23.4842 13.9787L24.0535 14.8007L23.4842 13.9787ZM111.087 15.5396C111.613 15.3702 111.902 14.8067 111.732 14.281L108.972 5.71488C108.802 5.18922 108.239 4.90041 107.713 5.06982C107.187 5.23922 106.899 5.80269 107.068 6.32835L109.522 13.9427L101.908 16.3966C101.382 16.566 101.093 17.1295 101.262 17.6551C101.432 18.1808 101.995 18.4696 102.521 18.3002L111.087 15.5396ZM11.4223 80.3923C12.2804 79.8788 12.2804 79.8789 12.2805 79.8789C12.2805 79.879 12.2805 79.879 12.2805 79.879C12.2805 79.8791 12.2806 79.8791 12.2806 79.8791C12.2806 79.8792 12.2806 79.8792 12.2805 79.8791C12.2804 79.8789 12.2802 79.8785 12.2798 79.8779C12.2791 79.8766 12.2777 79.8744 12.2759 79.8712C12.2721 79.8649 12.2661 79.8547 12.258 79.8409C12.2417 79.8131 12.2169 79.7704 12.1841 79.7131C12.1184 79.5986 12.0209 79.426 11.8966 79.1984C11.6478 78.7434 11.2918 78.0692 10.8681 77.2023L9.07121 78.0804C9.50931 78.9769 9.87952 79.6781 10.1416 80.1577C10.2727 80.3975 10.3768 80.5819 10.4489 80.7077C10.4849 80.7706 10.513 80.8188 10.5324 80.8519C10.5421 80.8685 10.5496 80.8813 10.5549 80.8903C10.5576 80.8947 10.5597 80.8983 10.5612 80.9009C10.562 80.9021 10.5626 80.9032 10.5631 80.904C10.5633 80.9044 10.5636 80.9047 10.5637 80.905C10.5638 80.9052 10.5639 80.9053 10.5639 80.9054C10.564 80.9054 10.564 80.9055 10.564 80.9055C10.5641 80.9056 10.5641 80.9057 11.4223 80.3923ZM8.43898 71.5649C7.78171 69.8267 7.1207 67.8669 6.5279 65.7334L4.6009 66.2689C5.21166 68.467 5.89216 70.4843 6.56826 72.2723L8.43898 71.5649ZM5.17583 59.7615C4.8363 57.8121 4.58357 55.7777 4.45563 53.6835L2.45935 53.8055C2.59225 55.9806 2.85445 58.0892 3.20549 60.1047L5.17583 59.7615ZM4.4607 47.5856C4.59072 45.5979 4.85381 43.5814 5.2783 41.5549L3.32079 41.1449C2.87569 43.2697 2.6007 45.3799 2.46497 47.455L4.4607 47.5856ZM6.96774 35.7191C7.65844 33.8748 8.50547 32.0356 9.53074 30.2155L7.78818 29.2339C6.71111 31.146 5.82081 33.0791 5.09478 35.0177L6.96774 35.7191ZM12.8986 25.1629C14.0939 23.626 15.4398 22.1118 16.9514 20.6298L15.5512 19.2017C13.977 20.7451 12.5712 22.3261 11.3198 23.935L12.8986 25.1629ZM21.5651 16.6211C22.3602 16.0064 23.1892 15.3993 24.0535 14.8007L22.9148 13.1566C22.0223 13.7747 21.165 14.4024 20.3418 15.0389L21.5651 16.6211ZM24.0535 14.8007C25.0905 14.0826 26.1388 13.4063 27.197 12.7701L26.1665 11.056C25.0718 11.7142 23.9873 12.4138 22.9148 13.1566L24.0535 14.8007ZM33.8386 9.33732C36.1527 8.3225 38.4983 7.46999 40.8614 6.76279L40.288 4.84675C37.8501 5.57633 35.4275 6.45664 33.0354 7.50572L33.8386 9.33732ZM48.1482 5.03135C50.6313 4.58571 53.1176 4.27883 55.591 4.09157L55.44 2.09728C52.9033 2.28933 50.3492 2.60437 47.7949 3.0628L48.1482 5.03135ZM63.1014 3.87155C65.6442 3.91006 68.154 4.0581 70.612 4.29351L70.8026 2.30262C68.2954 2.06249 65.732 1.91116 63.1316 1.87178L63.1014 3.87155ZM78.0867 5.28565C80.6483 5.71773 83.1224 6.22731 85.4841 6.78458L85.9434 4.83804C83.5433 4.27169 81.0268 3.75332 78.4194 3.31351L78.0867 5.28565ZM92.7655 8.73602C95.393 9.52397 97.7971 10.3355 99.9273 11.1108L100.611 9.23141C98.4484 8.44425 96.0077 7.62031 93.34 6.82031L92.7655 8.73602ZM106.932 13.9038C108.03 14.3838 108.882 14.7792 109.457 15.0538C109.745 15.191 109.964 15.298 110.11 15.3702C110.183 15.4063 110.237 15.4337 110.273 15.4518C110.291 15.4608 110.304 15.4676 110.313 15.4719C110.317 15.4741 110.32 15.4756 110.322 15.4766C110.323 15.4771 110.324 15.4774 110.324 15.4776C110.324 15.4777 110.324 15.4777 110.324 15.4778C110.324 15.4778 110.324 15.4778 110.324 15.4777C110.324 15.4777 110.324 15.4777 110.324 15.4777C110.324 15.4777 110.324 15.4777 110.78 14.5878C111.237 13.6979 111.236 13.6978 111.236 13.6978C111.236 13.6978 111.236 13.6978 111.236 13.6977C111.236 13.6977 111.236 13.6976 111.236 13.6975C111.236 13.6974 111.235 13.6972 111.235 13.697C111.234 13.6966 111.233 13.696 111.231 13.6952C111.229 13.6938 111.224 13.6917 111.219 13.689C111.209 13.6836 111.193 13.6758 111.173 13.6658C111.133 13.6456 111.074 13.6161 110.997 13.5779C110.843 13.5015 110.615 13.3901 110.318 13.2485C109.724 12.9652 108.852 12.5606 107.733 12.0713L106.932 13.9038Z" fill="#888888"/>
</svg>
