<svg width="144" height="76" viewBox="0 0 144 76" fill="none" xmlns="http://www.w3.org/2000/svg">
<path d="M22.2816 66.6255L22.0111 67.046L22.2816 66.6255ZM143.188 54.9384C143.444 55.0423 143.567 55.3339 143.463 55.5898L141.77 59.759C141.666 60.0149 141.374 60.1381 141.119 60.0341C140.863 59.9302 140.74 59.6386 140.844 59.3828L142.349 55.6767L138.643 54.1716C138.387 54.0677 138.264 53.7761 138.367 53.5202C138.471 53.2644 138.763 53.1412 139.019 53.2451L143.188 54.9384ZM8.06785 1C8.50505 1.24261 8.50506 1.24258 8.50508 1.24255C8.50508 1.24255 8.50509 1.24253 8.50509 1.24252C8.5051 1.24252 8.5051 1.24252 8.50509 1.24254C8.50506 1.24258 8.50501 1.24268 8.50492 1.24284C8.50474 1.24316 8.50443 1.24373 8.50398 1.24454C8.50309 1.24615 8.50166 1.24874 8.49971 1.25229C8.49582 1.25939 8.48983 1.27034 8.48182 1.28508C8.46581 1.31457 8.44174 1.35925 8.4102 1.41867C8.34714 1.53752 8.25424 1.71536 8.13639 1.94875C7.90066 2.41556 7.56514 3.1044 7.16866 3.9877L6.25635 3.57819C6.65957 2.67988 7.00172 1.97726 7.24375 1.49799C7.36476 1.25834 7.46076 1.0745 7.52687 0.949928C7.55992 0.887634 7.5855 0.840164 7.603 0.80793C7.61175 0.791817 7.61848 0.77951 7.62312 0.771072C7.62543 0.766846 7.62723 0.763596 7.62848 0.761314C7.62911 0.76017 7.62961 0.759277 7.62997 0.758621C7.63015 0.758293 7.6303 0.758034 7.63041 0.757828C7.63047 0.757721 7.63052 0.757637 7.63056 0.757568C7.63058 0.75753 7.6306 0.757484 7.63061 0.757469C7.63063 0.757431 7.63065 0.757393 8.06785 1ZM4.9195 9.716C4.31827 11.4785 3.72057 13.4635 3.19704 15.6207L2.22525 15.3849C2.7567 13.195 3.36321 11.1809 3.97305 9.39314L4.9195 9.716ZM2.03945 21.6521C1.76371 23.6183 1.57788 25.6683 1.51957 27.7751L0.519954 27.7474C0.579391 25.6 0.76873 23.5128 1.04914 21.5132L2.03945 21.6521ZM1.72998 33.9016C1.9279 35.8954 2.26098 37.9149 2.75743 39.9401L1.78619 40.1782C1.27775 38.1041 0.937131 36.0379 0.73487 34.0004L1.72998 33.9016ZM4.65849 45.7578C5.41748 47.5911 6.33395 49.4141 7.42939 51.2117L6.57546 51.7321C5.45254 49.8894 4.51282 48.0202 3.73454 46.1403L4.65849 45.7578ZM10.9937 56.1808C12.2492 57.6854 13.6547 59.1613 15.2245 60.5983L14.5493 61.3359C12.9472 59.8693 11.5106 58.3611 10.2259 56.8214L10.9937 56.1808ZM19.9942 64.4644C20.8129 65.0539 21.6651 65.6344 22.5521 66.205L22.0111 67.046C21.1097 66.4661 20.243 65.8759 19.4098 65.276L19.9942 64.4644ZM22.5521 66.205C23.5068 66.8192 24.4925 67.3945 25.5072 67.9323L25.0389 68.8159C24.0003 68.2654 22.9902 67.676 22.0111 67.046L22.5521 66.205ZM31.7872 70.6741C33.9101 71.4273 36.1216 72.0568 38.4067 72.5734L38.1862 73.5488C35.8661 73.0243 33.6164 72.3842 31.4528 71.6166L31.7872 70.6741ZM45.1806 73.7587C47.4289 74.047 49.7278 74.2462 52.0652 74.3649L52.0145 75.3636C49.6538 75.2437 47.3292 75.0425 45.0534 74.7505L45.1806 73.7587ZM58.9608 74.4913C61.2444 74.4638 63.5514 74.3712 65.8713 74.2212L65.9357 75.2192C63.5998 75.3701 61.2753 75.4635 58.9729 75.4912L58.9608 74.4913ZM72.7624 73.6178C75.0516 73.3673 77.3427 73.0691 79.6256 72.7304L79.7724 73.7195C77.4777 74.06 75.174 74.3599 72.8712 74.6119L72.7624 73.6178ZM86.453 71.5979C88.7413 71.1797 91.0106 70.7275 93.2503 70.249L93.4592 71.2269C91.2105 71.7074 88.9315 72.1615 86.6328 72.5816L86.453 71.5979ZM100.003 68.71C102.29 68.1572 104.531 67.5838 106.715 66.9988L106.974 67.9648C104.782 68.5517 102.533 69.1271 100.238 69.682L100.003 68.71ZM113.39 65.129C115.697 64.4546 117.915 63.7777 120.026 63.111L120.328 64.0646C118.21 64.7333 115.985 65.4123 113.671 66.0888L113.39 65.129ZM126.605 60.9574C129.015 60.1404 131.212 59.3647 133.156 58.6587L133.497 59.5986C131.547 60.3069 129.343 61.085 126.926 61.9044L126.605 60.9574ZM139.64 56.2156C140.663 55.8147 141.455 55.4957 141.991 55.2771C142.259 55.1678 142.463 55.0836 142.6 55.0268C142.669 54.9984 142.72 54.9768 142.754 54.9625C142.772 54.9553 142.785 54.9499 142.793 54.9463C142.797 54.9445 142.8 54.9431 142.803 54.9423C142.804 54.9418 142.804 54.9415 142.805 54.9413C142.805 54.9412 142.805 54.9411 142.805 54.9411C142.805 54.941 142.805 54.941 142.805 54.941C142.805 54.941 142.805 54.941 142.806 54.941C142.805 54.941 142.805 54.941 143 55.4016C143.195 55.8622 143.195 55.8622 143.195 55.8622C143.195 55.8622 143.194 55.8622 143.194 55.8623C143.194 55.8623 143.194 55.8623 143.194 55.8623C143.194 55.8624 143.194 55.8625 143.194 55.8626C143.193 55.8629 143.192 55.8633 143.191 55.8638C143.189 55.8647 143.185 55.8662 143.181 55.868C143.172 55.8718 143.158 55.8774 143.141 55.8848C143.105 55.8996 143.053 55.9215 142.984 55.9503C142.845 56.0079 142.639 56.0929 142.369 56.203C141.829 56.4233 141.033 56.744 140.005 57.1467L139.64 56.2156ZM22.2816 66.6255L21.7405 67.4665L22.2816 66.6255ZM143.376 54.4751C143.888 54.6829 144.134 55.2662 143.927 55.7779L140.54 64.1164C140.332 64.6281 139.749 64.8745 139.237 64.6667C138.726 64.4589 138.479 63.8756 138.687 63.3639L141.697 55.9518L134.285 52.9416C133.773 52.7338 133.527 52.1505 133.735 51.6388C133.943 51.1271 134.526 50.8808 135.038 51.0886L143.376 54.4751ZM8.06785 1C8.94225 1.48521 8.94228 1.48515 8.94231 1.48509C8.94232 1.48508 8.94235 1.48503 8.94236 1.48501C8.94239 1.48495 8.94241 1.48492 8.94242 1.48489C8.94245 1.48486 8.94244 1.48487 8.94239 1.48495C8.9423 1.48511 8.94208 1.48551 8.94173 1.48615C8.94102 1.48743 8.93978 1.48969 8.93801 1.4929C8.93449 1.49933 8.92887 1.5096 8.92123 1.52366C8.90597 1.55177 8.88264 1.59505 8.85187 1.65304C8.79032 1.76903 8.69899 1.94388 8.58271 2.17413C8.35013 2.6347 8.01792 3.31667 7.62482 4.19245L5.8002 3.37344C6.20679 2.46762 6.55226 1.7581 6.79742 1.27261C6.92002 1.02983 7.01758 0.842995 7.0852 0.715553C7.11901 0.651833 7.14535 0.602959 7.16359 0.569351C7.17272 0.552551 7.17982 0.539566 7.18482 0.530457C7.18732 0.525902 7.18929 0.522316 7.19074 0.519699C7.19146 0.518394 7.19205 0.517334 7.1925 0.51651C7.19272 0.516106 7.19292 0.515755 7.19308 0.515472C7.19316 0.515327 7.19323 0.515198 7.19329 0.515083C7.19332 0.51503 7.19336 0.514954 7.19338 0.514931C7.19342 0.514862 7.19345 0.514793 8.06785 1ZM5.39272 9.87742C4.7958 11.6273 4.20251 13.5978 3.68293 15.7386L1.73935 15.2669C2.27477 13.0608 2.88568 11.0321 3.49982 9.23172L5.39272 9.87742ZM2.5346 21.7215C2.2612 23.6711 2.07713 25.7024 2.01938 27.7889L0.0201451 27.7336C0.0801445 25.5658 0.27124 23.46 0.553984 21.4438L2.5346 21.7215ZM2.22753 33.8522C2.42329 35.8242 2.75259 37.8203 3.24305 39.8211L1.30056 40.2973C0.786135 38.1987 0.441744 36.1091 0.237316 34.0498L2.22753 33.8522ZM5.12047 45.5665C5.86982 47.3766 6.77466 49.1765 7.85636 50.9515L6.14849 51.9923C5.01183 50.1271 4.06048 48.2348 3.27256 46.3315L5.12047 45.5665ZM11.3776 55.8604C12.6185 57.3476 14.0085 58.8073 15.5622 60.2295L14.2117 61.7047C12.5934 60.2233 11.1413 58.699 9.84198 57.1418L11.3776 55.8604ZM20.2863 64.0587C21.0978 64.643 21.9429 65.2185 22.8226 65.7846L21.7405 67.4665C20.832 66.882 19.9581 66.2868 19.1177 65.6817L20.2863 64.0587ZM22.8226 65.7846C23.7651 66.3909 24.7387 66.959 25.7414 67.4905L24.8047 69.2576C23.7542 68.7008 22.732 68.1044 21.7405 67.4665L22.8226 65.7846ZM31.9544 70.2029C34.057 70.9489 36.2493 71.5731 38.5169 72.0857L38.0759 74.0365C35.7384 73.5081 33.4696 72.8626 31.2857 72.0878L31.9544 70.2029ZM45.2442 73.2627C47.4787 73.5493 49.7648 73.7474 52.0905 73.8655L51.9891 75.8629C49.6168 75.7425 47.2794 75.5402 44.9898 75.2465L45.2442 73.2627ZM58.9548 73.9913C61.2289 73.9639 63.5272 73.8717 65.839 73.7223L65.968 75.7181C63.624 75.8696 61.2907 75.9633 58.9789 75.9912L58.9548 73.9913ZM72.708 73.1208C74.9905 72.871 77.2752 72.5736 79.5523 72.2358L79.8458 74.2141C77.5452 74.5554 75.2351 74.8562 72.9256 75.1089L72.708 73.1208ZM86.3632 71.1061C88.6463 70.6888 90.9106 70.2376 93.1458 69.76L93.5637 71.7159C91.3104 72.1973 89.0265 72.6524 86.7227 73.0735L86.3632 71.1061ZM99.8855 68.224C102.168 67.6722 104.405 67.0998 106.586 66.5159L107.103 68.4478C104.908 69.0357 102.655 69.6121 100.356 70.168L99.8855 68.224ZM113.25 64.6491C115.553 63.9758 117.768 63.2999 119.876 62.6342L120.478 64.5413C118.357 65.2111 116.129 65.8912 113.811 66.5687L113.25 64.6491ZM126.445 60.4838C128.851 59.6681 131.044 58.8936 132.985 58.1887L133.668 60.0686C131.714 60.778 129.508 61.5573 127.087 62.378L126.445 60.4838ZM139.458 55.7501C140.478 55.3501 141.269 55.0319 141.803 54.8141C142.07 54.7052 142.273 54.6214 142.408 54.565C142.476 54.5368 142.527 54.5155 142.561 54.5013C142.578 54.4942 142.591 54.4889 142.599 54.4854C142.603 54.4836 142.606 54.4823 142.608 54.4815C142.609 54.4811 142.61 54.4808 142.61 54.4806C142.611 54.4805 142.611 54.4805 142.611 54.4804C142.611 54.4804 142.611 54.4804 142.611 54.4804C142.611 54.4804 142.611 54.4804 142.611 54.4804C142.611 54.4804 142.611 54.4804 143 55.4016C143.389 56.3228 143.389 56.3228 143.389 56.3228C143.389 56.3229 143.389 56.3229 143.389 56.3229C143.389 56.3229 143.389 56.3229 143.389 56.323C143.389 56.3231 143.388 56.3232 143.388 56.3233C143.387 56.3236 143.386 56.324 143.385 56.3245C143.383 56.3255 143.379 56.327 143.375 56.3289C143.365 56.3328 143.352 56.3385 143.334 56.346C143.298 56.361 143.245 56.3831 143.175 56.4121C143.036 56.47 142.829 56.5555 142.558 56.666C142.016 56.8871 141.217 57.2087 140.187 57.6122L139.458 55.7501Z" fill="#888888"/>
</svg>
