<svg width="40" height="40" viewBox="0 0 40 40" fill="none" xmlns="http://www.w3.org/2000/svg">
<path fill-rule="evenodd" clip-rule="evenodd" d="M20.052 25.6676H21.092C21.092 25.6676 21.404 25.6156 21.56 25.4596C21.716 25.3036 21.716 24.9916 21.716 24.9916C21.716 24.9916 21.716 23.6396 22.34 23.4316C22.964 23.2236 23.796 24.7836 24.628 25.3556C25.252 25.8236 25.72 25.7196 25.72 25.7196L28.008 25.6676C28.008 25.6676 29.204 25.6156 28.632 24.6276C28.58 24.5756 28.32 23.9516 26.916 22.6516C25.46 21.2996 25.668 21.5596 27.384 19.2196C28.424 17.8156 28.84 16.9836 28.736 16.5676C28.632 16.2036 27.852 16.3076 27.852 16.3076H25.252C25.252 16.3076 25.044 16.2556 24.94 16.3596C24.784 16.4636 24.732 16.6196 24.732 16.6196C24.732 16.6196 24.316 17.7116 23.796 18.6476C22.652 20.5716 22.184 20.6756 22.028 20.5716C21.612 20.3116 21.716 19.4276 21.716 18.8556C21.716 16.9836 22.028 16.2036 21.144 15.9956C20.884 15.9436 20.676 15.8916 19.948 15.8916C19.012 15.8916 18.232 15.8916 17.816 16.0996C17.504 16.2556 17.296 16.5676 17.452 16.5676C17.608 16.5676 18.024 16.6716 18.232 16.9316C18.44 17.3996 18.44 18.1796 18.44 18.1796C18.44 18.1796 18.596 20.4156 18.076 20.6756C17.712 20.8836 17.244 20.4676 16.204 18.6996C15.684 17.8156 15.268 16.7756 15.268 16.7756C15.268 16.7756 15.216 16.5676 15.06 16.4636C14.904 16.3596 14.644 16.3076 14.644 16.3076H12.2C12.2 16.3076 11.836 16.3076 11.68 16.4636C11.576 16.6196 11.68 16.8796 11.68 16.8796C11.68 16.8796 13.604 21.3516 15.788 23.6396C17.816 25.8236 20.052 25.6676 20.052 25.6676Z" fill="#888888"/>
<circle cx="20" cy="20" r="19.5" stroke="#888888"/>
</svg>
