<svg width="40" height="40" viewBox="0 0 40 40" fill="none" xmlns="http://www.w3.org/2000/svg">
<circle cx="20" cy="20" r="19.5" stroke="#888888"/>
<path d="M19.9989 14.9922C18.6703 14.9922 17.3962 15.52 16.4568 16.4594C15.5173 17.3988 14.9896 18.673 14.9896 20.0015C14.9896 21.3301 15.5173 22.6042 16.4568 23.5437C17.3962 24.4831 18.6703 25.0109 19.9989 25.0109C21.3275 25.0109 22.6016 24.4831 23.541 23.5437C24.4805 22.6042 25.0082 21.3301 25.0082 20.0015C25.0082 18.673 24.4805 17.3988 23.541 16.4594C22.6016 15.52 21.3275 14.9922 19.9989 14.9922ZM19.9989 23.2548C19.1358 23.2548 18.308 22.9119 17.6977 22.3016C17.0874 21.6913 16.7446 20.8635 16.7446 20.0004C16.7446 19.1373 17.0874 18.3096 17.6977 17.6993C18.308 17.089 19.1358 16.7461 19.9989 16.7461C20.862 16.7461 21.6898 17.089 22.3001 17.6993C22.9104 18.3096 23.2532 19.1373 23.2532 20.0004C23.2532 20.8635 22.9104 21.6913 22.3001 22.3016C21.6898 22.9119 20.862 23.2548 19.9989 23.2548Z" fill="#888888"/>
<path d="M25.2065 15.9753C25.8515 15.9753 26.3744 15.4525 26.3744 14.8075C26.3744 14.1625 25.8515 13.6396 25.2065 13.6396C24.5616 13.6396 24.0387 14.1625 24.0387 14.8075C24.0387 15.4525 24.5616 15.9753 25.2065 15.9753Z" fill="#888888"/>
<path d="M29.2441 13.6207C28.9933 12.9731 28.6101 12.3849 28.1189 11.8939C27.6277 11.4029 27.0394 11.0199 26.3917 10.7694C25.6337 10.4848 24.833 10.331 24.0235 10.3144C22.9803 10.2689 22.6499 10.2559 20.0044 10.2559C17.3589 10.2559 17.0198 10.2559 15.9852 10.3144C15.1764 10.3301 14.3762 10.484 13.6192 10.7694C12.9713 11.0196 12.3829 11.4025 11.8916 11.8936C11.4004 12.3846 11.0173 12.9729 10.7668 13.6207C10.4822 14.3786 10.3287 15.1794 10.3129 15.9889C10.2663 17.031 10.2522 17.3614 10.2522 20.008C10.2522 22.6535 10.2522 22.9904 10.3129 24.0272C10.3291 24.8375 10.4819 25.637 10.7668 26.3964C11.018 27.044 11.4015 27.6321 11.8928 28.123C12.3842 28.614 12.9725 28.9971 13.6203 29.2478C14.3758 29.5437 15.1763 29.7086 15.9874 29.7353C17.0306 29.7808 17.361 29.7949 20.0065 29.7949C22.652 29.7949 22.9911 29.7949 24.0257 29.7353C24.8351 29.7188 25.6358 29.5653 26.3939 29.2814C27.0414 29.0302 27.6295 28.6469 28.1207 28.1557C28.6118 27.6646 28.9952 27.0765 29.2463 26.4289C29.5312 25.6706 29.6839 24.8711 29.7002 24.0608C29.7468 23.0186 29.7609 22.6882 29.7609 20.0416C29.7609 17.395 29.7609 17.0592 29.7002 16.0224C29.6876 15.2016 29.5333 14.389 29.2441 13.6207ZM27.9246 23.947C27.9176 24.5714 27.8037 25.1899 27.5877 25.7757C27.425 26.197 27.1759 26.5795 26.8565 26.8988C26.5371 27.218 26.1544 27.4668 25.733 27.6293C25.1537 27.8443 24.5418 27.9582 23.9239 27.9662C22.8947 28.0139 22.6044 28.0258 19.9654 28.0258C17.3242 28.0258 17.0544 28.0258 16.0058 27.9662C15.3882 27.9586 14.7765 27.8447 14.1977 27.6293C13.7749 27.4678 13.3906 27.2194 13.0698 26.9001C12.749 26.5809 12.4989 26.1978 12.3354 25.7757C12.1225 25.1962 12.0086 24.5849 11.9985 23.9676C11.9519 22.9384 11.9411 22.6481 11.9411 20.0091C11.9411 17.369 11.9411 17.0993 11.9985 16.0495C12.0055 15.4256 12.1195 14.8074 12.3354 14.2219C12.6659 13.3672 13.3429 12.6944 14.1977 12.3673C14.7768 12.1529 15.3883 12.039 16.0058 12.0304C17.036 11.9838 17.3253 11.9708 19.9654 11.9708C22.6054 11.9708 22.8763 11.9708 23.9239 12.0304C24.5418 12.0378 25.1538 12.1518 25.733 12.3673C26.1544 12.5301 26.537 12.7792 26.8564 13.0986C27.1758 13.418 27.4249 13.8006 27.5877 14.2219C27.8006 14.8015 27.9145 15.4127 27.9246 16.03C27.9712 17.0603 27.9831 17.3495 27.9831 19.9896C27.9831 22.6286 27.9831 22.9124 27.9365 23.9481H27.9246V23.947Z" fill="#888888"/>
</svg>
