<svg width="36" height="49" viewBox="0 0 36 49" fill="none" xmlns="http://www.w3.org/2000/svg">
<path d="M9.09848 33.7876L9.36998 33.3678L9.09848 33.7876ZM34.713 39.0476C34.9628 39.1653 35.07 39.4632 34.9524 39.713L33.0354 43.7843C32.9178 44.0341 32.6199 44.1413 32.3701 44.0236C32.1202 43.906 32.0131 43.6081 32.1307 43.3583L33.8346 39.7394L30.2157 38.0354C29.9659 37.9178 29.8587 37.6199 29.9764 37.3701C30.094 37.1202 30.3919 37.013 30.6417 37.1307L34.713 39.0476ZM4.26314 1.00003C4.72301 1.1963 4.72302 1.19627 4.72303 1.19625C4.72303 1.19625 4.72304 1.19623 4.72304 1.19622C4.72305 1.19621 4.72304 1.19621 4.72303 1.19623C4.72302 1.19627 4.72297 1.19638 4.7229 1.19655C4.72276 1.19688 4.72251 1.19748 4.72215 1.19833C4.72143 1.20002 4.72028 1.20273 4.71871 1.20645C4.71558 1.21388 4.71077 1.22534 4.70437 1.24073C4.69157 1.27151 4.6724 1.31804 4.64751 1.3796C4.59773 1.50274 4.52508 1.68602 4.43478 1.92387C4.25414 2.39962 4.00299 3.09336 3.72291 3.96058L2.77131 3.65325C3.05713 2.76824 3.31399 2.05854 3.4999 1.56891C3.59286 1.32406 3.66811 1.13416 3.72041 1.00479C3.74657 0.940105 3.76698 0.890545 3.78101 0.856808C3.78802 0.839939 3.79344 0.827026 3.79718 0.818157C3.79905 0.813721 3.8005 0.810295 3.80151 0.807892C3.80202 0.80669 3.80243 0.805744 3.80272 0.805054C3.80287 0.80471 3.80299 0.804428 3.80308 0.804214C3.80312 0.804104 3.80316 0.804012 3.8032 0.803936C3.80321 0.803898 3.80323 0.803856 3.80324 0.803837C3.80326 0.803795 3.80327 0.803757 4.26314 1.00003ZM2.24298 9.69582C1.89134 11.5113 1.61906 13.5045 1.5306 15.5626L0.531522 15.5196C0.622513 13.4026 0.902174 11.3594 1.26123 9.50566L2.24298 9.69582ZM1.85223 21.4263C2.17285 23.3435 2.73188 25.2199 3.60785 26.9712L2.71349 27.4186C1.78581 25.5639 1.20009 23.5894 0.86593 21.5912L1.85223 21.4263ZM7.06983 31.5898C7.75611 32.2232 8.5203 32.8184 9.36998 33.3678L8.82699 34.2075C7.93011 33.6276 7.12058 32.9974 6.39165 32.3247L7.06983 31.5898ZM9.36998 33.3678C10.0076 33.7801 10.6372 34.167 11.2583 34.53L10.7537 35.3933C10.1195 35.0227 9.47709 34.6279 8.82699 34.2075L9.36998 33.3678ZM15.1727 36.5687C16.5999 37.2217 17.9692 37.7496 19.2726 38.1738L18.9632 39.1247C17.6234 38.6887 16.2186 38.1469 14.7567 37.4781L15.1727 36.5687ZM23.5326 39.264C25.1421 39.5627 26.6033 39.7035 27.8941 39.7454L27.8616 40.7449C26.5225 40.7014 25.0111 40.5554 23.3502 40.2472L23.5326 39.264ZM32.2542 39.5002C32.9383 39.3934 33.4639 39.2735 33.8153 39.1813C33.9909 39.1352 34.123 39.0961 34.2096 39.0691C34.2529 39.0556 34.2848 39.0451 34.3051 39.0383C34.3152 39.0349 34.3224 39.0324 34.3267 39.0309C34.3289 39.0302 34.3303 39.0297 34.331 39.0294C34.3313 39.0293 34.3314 39.0293 34.3314 39.0293C34.3314 39.0293 34.3313 39.0293 34.3312 39.0293C34.3312 39.0294 34.3311 39.0294 34.331 39.0294C34.331 39.0294 34.3309 39.0295 34.3309 39.0295C34.3308 39.0295 34.3307 39.0295 34.5 39.5C34.6693 39.9705 34.6692 39.9705 34.6691 39.9705C34.6691 39.9705 34.669 39.9706 34.6689 39.9706C34.6688 39.9706 34.6687 39.9707 34.6685 39.9707C34.6682 39.9709 34.6679 39.971 34.6675 39.9711C34.6667 39.9714 34.6657 39.9717 34.6646 39.9721C34.6623 39.973 34.6592 39.974 34.6554 39.9754C34.6478 39.978 34.6372 39.9816 34.6237 39.9862C34.5967 39.9953 34.5578 40.008 34.5075 40.0237C34.4068 40.0551 34.26 40.0985 34.0689 40.1486C33.6869 40.2488 33.1281 40.3759 32.4084 40.4882L32.2542 39.5002ZM9.09848 33.7876L9.64147 32.9479L9.09848 33.7876ZM34.926 38.5953C35.4257 38.8305 35.64 39.4263 35.4047 39.926L31.5708 48.0685C31.3356 48.5682 30.7398 48.7825 30.2401 48.5473C29.7404 48.312 29.5261 47.7162 29.7614 47.2166L33.1693 39.9787L25.9315 36.5708C25.4318 36.3356 25.2174 35.7398 25.4527 35.2401C25.688 34.7404 26.2838 34.5261 26.7834 34.7614L34.926 38.5953ZM4.26314 1.00003C5.18287 1.39258 5.1829 1.39251 5.18292 1.39246C5.18293 1.39244 5.18295 1.39239 5.18296 1.39236C5.18299 1.39231 5.183 1.39227 5.18301 1.39224C5.18303 1.3922 5.18303 1.39222 5.18299 1.3923C5.18292 1.39246 5.18275 1.39287 5.18246 1.39354C5.18189 1.39488 5.1809 1.39724 5.17948 1.4006C5.17665 1.40731 5.17215 1.41804 5.16606 1.43269C5.15387 1.462 5.13532 1.50701 5.11106 1.56701C5.06254 1.68703 4.9912 1.867 4.90222 2.10135C4.72422 2.57016 4.47592 3.25593 4.19871 4.11424L2.29551 3.49959C2.5842 2.60567 2.84392 1.888 3.03245 1.39143C3.12675 1.14309 3.2033 0.949871 3.25686 0.817387C3.28365 0.751137 3.30469 0.700058 3.31933 0.664845C3.32665 0.64724 3.33237 0.633598 3.33641 0.624008C3.33843 0.619213 3.34003 0.615433 3.3412 0.612675C3.34178 0.611298 3.34226 0.610172 3.34263 0.609306C3.34281 0.608875 3.34297 0.608505 3.3431 0.608204C3.34316 0.608051 3.34322 0.607914 3.34327 0.607796C3.3433 0.607735 3.34333 0.607658 3.34335 0.607628C3.34338 0.607555 3.34341 0.607483 4.26314 1.00003ZM2.73386 9.7909C2.38592 11.5873 2.11733 13.5554 2.03014 15.584L0.0319837 15.4982C0.124241 13.3517 0.407593 11.2835 0.770351 9.41058L2.73386 9.7909ZM2.34539 21.3438C2.65923 23.2205 3.20492 25.0479 4.05503 26.7475L2.26631 27.6422C1.31277 25.7359 0.713711 23.7124 0.372779 21.6737L2.34539 21.3438ZM7.40893 31.2224C8.07387 31.836 8.81539 32.4137 9.64147 32.9479L8.5555 34.6274C7.63501 34.0322 6.80282 33.3846 6.05255 32.6922L7.40893 31.2224ZM9.64147 32.9479C10.2728 33.3561 10.896 33.7391 11.5106 34.0983L10.5014 35.825C9.86066 35.4505 9.21185 35.0518 8.5555 34.6274L9.64147 32.9479ZM15.3807 36.1141C16.7906 36.7591 18.142 37.2801 19.4273 37.6983L18.8085 39.6001C17.4505 39.1583 16.0279 38.6095 14.5487 37.9328L15.3807 36.1141ZM23.6239 38.7724C25.2076 39.0663 26.6437 39.2046 27.9103 39.2457L27.8454 41.2446C26.4821 41.2004 24.9456 41.0518 23.2589 40.7388L23.6239 38.7724ZM32.1772 39.0061C32.8434 38.9022 33.3524 38.7858 33.6884 38.6977C33.8564 38.6536 33.9812 38.6166 34.0607 38.5918C34.1004 38.5794 34.1289 38.57 34.1458 38.5644C34.1542 38.5615 34.1598 38.5596 34.1624 38.5587C34.1637 38.5582 34.1643 38.558 34.1641 38.5581C34.1641 38.5581 34.1638 38.5582 34.1634 38.5584C34.1631 38.5584 34.1629 38.5585 34.1626 38.5586C34.1624 38.5587 34.1622 38.5588 34.1621 38.5588C34.162 38.5589 34.1618 38.5589 34.1618 38.5589C34.1616 38.559 34.1615 38.559 34.5 39.5C34.8385 40.441 34.8384 40.441 34.8382 40.4411C34.8382 40.4411 34.838 40.4411 34.8379 40.4412C34.8377 40.4413 34.8374 40.4414 34.8372 40.4414C34.8367 40.4416 34.8361 40.4418 34.8355 40.442C34.8343 40.4425 34.833 40.4429 34.8314 40.4435C34.8283 40.4446 34.8244 40.446 34.8197 40.4476C34.8105 40.4508 34.7982 40.455 34.783 40.4601C34.7526 40.4704 34.7103 40.4842 34.6564 40.501C34.5487 40.5346 34.3945 40.5801 34.1958 40.6322C33.7985 40.7364 33.2231 40.8672 32.4855 40.9822L32.1772 39.0061Z" fill="#666666"/>
</svg>
