<svg width="70" height="70" viewBox="0 0 70 70" fill="none" xmlns="http://www.w3.org/2000/svg">
<path d="M14.1182 53.965L14.3892 53.5447L14.1182 53.965ZM69.2411 59.962C69.4831 60.0952 69.5712 60.3993 69.438 60.6412L67.2676 64.5832C67.1344 64.8251 66.8304 64.9132 66.5885 64.7801C66.3466 64.6469 66.2584 64.3428 66.3916 64.1009L68.3208 60.5969L64.8168 58.6677C64.5749 58.5345 64.4868 58.2304 64.62 57.9885C64.7532 57.7466 65.0572 57.6585 65.2991 57.7917L69.2411 59.962ZM6.28575 1C6.74542 1.19673 6.74544 1.1967 6.74544 1.19668C6.74544 1.19669 6.74545 1.19667 6.74545 1.19667C6.74544 1.19668 6.74543 1.19672 6.7454 1.19678C6.74535 1.1969 6.74526 1.19712 6.74512 1.19745C6.74484 1.1981 6.74438 1.19917 6.74376 1.20065C6.7425 1.2036 6.74055 1.2082 6.73792 1.21443C6.73266 1.22688 6.72468 1.24583 6.71412 1.27115C6.69301 1.3218 6.66157 1.39789 6.62086 1.49831C6.53944 1.69916 6.42094 1.99729 6.27383 2.3837C5.97958 3.15657 5.57096 4.28226 5.11548 5.68876L4.16412 5.38067C4.62537 3.95633 5.03973 2.81466 5.33927 2.02789C5.48905 1.63447 5.61016 1.3297 5.69412 1.12262C5.73609 1.01907 5.76879 0.93993 5.79113 0.88633C5.80231 0.859531 5.81089 0.839115 5.81676 0.825226C5.8197 0.818283 5.82195 0.812969 5.82351 0.809303C5.82429 0.807468 5.8249 0.806049 5.82532 0.805042C5.82554 0.804539 5.82571 0.804142 5.82584 0.803844C5.8259 0.803699 5.82595 0.803577 5.82599 0.803482C5.82601 0.803432 5.82604 0.803379 5.82605 0.803356C5.82606 0.80331 5.82608 0.803272 6.28575 1ZM2.70857 14.9917C2.13658 17.9373 1.6933 21.1736 1.54957 24.5175L0.550497 24.4746C0.696766 21.0715 1.14747 17.785 1.72691 14.8011L2.70857 14.9917ZM2.07647 34.0571C2.60089 37.1793 3.5158 40.2407 4.95213 43.1014L4.05845 43.5501C2.57013 40.5858 1.62835 37.4262 1.09028 34.2227L2.07647 34.0571ZM10.6259 50.6444C11.7496 51.6781 13 52.649 14.3892 53.5447L13.8473 54.3852C12.411 53.459 11.1153 52.4533 9.9489 51.3804L10.6259 50.6444ZM14.3892 53.5447C15.7199 54.4029 17.073 55.1848 18.4419 55.8963L17.9806 56.7836C16.5851 56.0581 15.205 55.2607 13.8473 54.3852L14.3892 53.5447ZM27.0992 59.4663C30.1571 60.4342 33.2242 61.1262 36.2316 61.6025L36.0752 62.5902C33.0239 62.1069 29.9078 61.4042 26.7975 60.4197L27.0992 59.4663ZM45.5853 62.4638C48.9549 62.5647 52.1287 62.4463 54.9859 62.2142L55.0668 63.2109C52.1779 63.4456 48.9667 63.5655 45.5553 63.4634L45.5853 62.4638ZM64.3104 60.9553C65.7521 60.6793 66.8928 60.4196 67.6715 60.2293C68.0609 60.1341 68.3598 60.0563 68.5605 60.0025C68.6609 59.9756 68.7368 59.9547 68.7871 59.9406C68.8123 59.9336 68.8311 59.9283 68.8434 59.9248C68.8496 59.923 68.8541 59.9217 68.857 59.9209C68.8585 59.9205 68.8595 59.9202 68.8602 59.92C68.8605 59.9199 68.8607 59.9198 68.8608 59.9198C68.8608 59.9198 68.8609 59.9198 68.8609 59.9198C68.8609 59.9198 68.8609 59.9198 68.8609 59.9198C68.8608 59.9198 68.8608 59.9198 69 60.4C69.1392 60.8803 69.1392 60.8803 69.1391 60.8803C69.1391 60.8803 69.139 60.8803 69.139 60.8803C69.1389 60.8804 69.1387 60.8804 69.1386 60.8805C69.1383 60.8805 69.1379 60.8807 69.1374 60.8808C69.1363 60.8811 69.1349 60.8815 69.1331 60.882C69.1294 60.8831 69.1241 60.8846 69.1171 60.8866C69.1032 60.8906 69.0828 60.8963 69.056 60.9038C69.0023 60.9188 68.9232 60.9406 68.8194 60.9684C68.6118 61.024 68.3058 61.1037 67.909 61.2007C67.1153 61.3947 65.9581 61.6581 64.4983 61.9374L64.3104 60.9553ZM14.1182 53.965L14.6602 53.1245L14.1182 53.965ZM69.4823 59.524C69.9661 59.7904 70.1424 60.3985 69.876 60.8823L65.5353 68.7664C65.2689 69.2502 64.6608 69.4264 64.177 69.1601C63.6931 68.8937 63.5169 68.2856 63.7833 67.8018L67.6417 60.7937L60.6337 56.9353C60.1499 56.6689 59.9736 56.0608 60.24 55.577C60.5063 55.0932 61.1145 54.9169 61.5983 55.1833L69.4823 59.524ZM6.28575 1C7.2051 1.39346 7.20512 1.3934 7.20514 1.39334C7.20515 1.39334 7.20517 1.39329 7.20517 1.39327C7.20519 1.39324 7.20519 1.39323 7.20519 1.39325C7.20517 1.39328 7.20512 1.39341 7.20501 1.39365C7.20481 1.39413 7.20443 1.39502 7.20388 1.39632C7.20277 1.39892 7.20097 1.40316 7.19849 1.40903C7.19354 1.42076 7.18587 1.43898 7.17562 1.46357C7.15512 1.51273 7.12431 1.5873 7.08423 1.68616C7.00407 1.88389 6.88689 2.1787 6.74111 2.5616C6.4495 3.32752 6.04375 4.44522 5.59116 5.8428L3.68844 5.22663C4.15258 3.79337 4.5698 2.64371 4.87199 1.84998C5.02311 1.45306 5.14553 1.14498 5.23075 0.934765C5.27336 0.829655 5.30668 0.748997 5.32964 0.69392C5.34112 0.666382 5.35001 0.645237 5.35619 0.630627C5.35927 0.623322 5.36168 0.617649 5.36339 0.613632C5.36424 0.611622 5.36492 0.610023 5.36543 0.608841C5.36568 0.60825 5.36589 0.607761 5.36605 0.60738C5.36613 0.607189 5.3662 0.607021 5.36626 0.606884C5.36629 0.606812 5.36633 0.606728 5.36635 0.606693C5.36638 0.606613 5.36641 0.606541 6.28575 1ZM3.1994 15.087C2.63114 18.0134 2.19157 21.2247 2.04911 24.539L0.050958 24.4531C0.198498 21.0205 0.652913 17.7089 1.23607 14.7058L3.1994 15.087ZM2.56956 33.9743C3.08716 37.0558 3.98863 40.0681 5.39896 42.877L3.61161 43.7744C2.09729 40.7584 1.14208 37.5496 0.597189 34.3056L2.56956 33.9743ZM10.9644 50.2764C12.0668 51.2905 13.2946 52.2439 14.6602 53.1245L13.5763 54.8054C12.1165 53.864 10.7981 52.8409 9.61039 51.7484L10.9644 50.2764ZM14.6602 53.1245C15.9774 53.974 17.317 54.7481 18.6725 55.4526L17.75 57.2272C16.3411 56.4948 14.9475 55.6896 13.5763 54.8054L14.6602 53.1245ZM27.2501 58.9896C30.2817 59.9492 33.3243 60.6358 36.3099 61.1087L35.997 63.0841C32.9238 62.5973 29.7832 61.8891 26.6466 60.8964L27.2501 58.9896ZM45.6002 61.9641C48.9489 62.0643 52.1041 61.9466 54.9454 61.7158L55.1073 63.7093C52.2025 63.9452 48.9726 64.0659 45.5404 63.9632L45.6002 61.9641ZM64.2164 60.4642C65.6491 60.19 66.7815 59.9321 67.5528 59.7436C67.9385 59.6493 68.2338 59.5724 68.4311 59.5195C68.5298 59.4931 68.604 59.4726 68.6527 59.459C68.6771 59.4522 68.6951 59.4471 68.7066 59.4439C68.7124 59.4422 68.7165 59.441 68.719 59.4403C68.7203 59.44 68.7211 59.4397 68.7215 59.4396C68.7218 59.4395 68.7219 59.4395 68.7219 59.4395C68.7219 59.4395 68.7219 59.4395 68.7218 59.4395C68.7218 59.4395 68.7217 59.4395 68.7217 59.4395C68.7217 59.4396 68.7216 59.4396 69 60.4C69.2784 61.3605 69.2783 61.3605 69.2782 61.3606C69.2782 61.3606 69.2781 61.3606 69.278 61.3606C69.2779 61.3607 69.2777 61.3607 69.2775 61.3608C69.2771 61.3609 69.2766 61.361 69.276 61.3612C69.2748 61.3616 69.2731 61.362 69.2711 61.3626C69.267 61.3638 69.2613 61.3654 69.2539 61.3675C69.2392 61.3717 69.218 61.3777 69.1904 61.3854C69.1351 61.4008 69.0543 61.4231 68.9488 61.4514C68.7378 61.5079 68.4283 61.5885 68.0277 61.6864C67.2266 61.8822 66.0611 62.1474 64.5923 62.4285L64.2164 60.4642Z" fill="#666666"/>
</svg>
