<svg width="20" height="20" viewBox="0 0 20 20" fill="none" xmlns="http://www.w3.org/2000/svg">
<path d="M10.3333 3.6665C6.65332 3.6665 3.66666 6.65317 3.66666 10.3332C3.66666 14.0132 6.65332 16.9998 10.3333 16.9998C14.0133 16.9998 17 14.0132 17 10.3332C17 6.65317 14.0133 3.6665 10.3333 3.6665ZM10.3333 15.6665C7.38666 15.6665 4.99999 13.2798 4.99999 10.3332C4.99999 7.3865 7.38666 4.99984 10.3333 4.99984C13.28 4.99984 15.6667 7.3865 15.6667 10.3332C15.6667 13.2798 13.28 15.6665 10.3333 15.6665Z" fill="#EA8917"/>
<path d="M10.3333 13.6667C12.1743 13.6667 13.6667 12.1743 13.6667 10.3333C13.6667 8.49238 12.1743 7 10.3333 7C8.49238 7 7 8.49238 7 10.3333C7 12.1743 8.49238 13.6667 10.3333 13.6667Z" fill="#EA8917"/>
</svg>
