<svg width="14" height="14" viewBox="0 0 14 14" fill="none" xmlns="http://www.w3.org/2000/svg">
<path d="M13.2928 10.0489L13.2824 10.1354C12.9354 9.96237 11.2454 9.13547 10.9306 9.02129C10.2239 8.7595 10.4234 8.97978 9.0665 10.5344C8.86476 10.7593 8.66417 10.7766 8.32178 10.6209C7.97593 10.4479 6.86576 10.0846 5.55153 8.90827C4.52782 7.99142 3.84073 6.86698 3.63784 6.521C3.30006 5.93744 4.00674 5.85441 4.65002 4.63655C4.7653 4.39436 4.70651 4.20407 4.6212 4.03224C4.53474 3.85924 3.8465 2.16393 3.55829 1.48811C3.28161 0.814603 2.99686 0.899946 2.78359 0.899946C2.11956 0.842282 1.63422 0.851508 1.20652 1.29667C-0.654144 3.34258 -0.184942 5.45307 1.40711 7.69734C4.53589 11.7938 6.20288 12.548 9.25096 13.5952C10.0741 13.857 10.8246 13.8201 11.4183 13.7347C12.08 13.6298 13.4553 12.9032 13.7424 12.0902C14.0363 11.2771 14.0363 10.6024 13.9499 10.4467C13.8646 10.291 13.6386 10.2046 13.2928 10.0489Z" fill="white"/>
</svg>
