<svg width="16" height="16" viewBox="0 0 16 16" fill="none" xmlns="http://www.w3.org/2000/svg">
<path d="M3.33331 3.33331H12C12.5304 3.33331 13.0391 3.54403 13.4142 3.9191C13.7893 4.29417 14 4.80288 14 5.33331V11.3333C14 11.8637 13.7893 12.3725 13.4142 12.7475C13.0391 13.1226 12.5304 13.3333 12 13.3333H3.33331C2.80288 13.3333 2.29417 13.1226 1.9191 12.7475C1.54403 12.3725 1.33331 11.8637 1.33331 11.3333V5.33331C1.33331 4.80288 1.54403 4.29417 1.9191 3.9191C2.29417 3.54403 2.80288 3.33331 3.33331 3.33331ZM3.33331 3.99998C3.00798 3.99998 2.70931 4.11665 2.47798 4.31065L7.66665 7.67998L12.8553 4.31065C12.6157 4.10959 12.3128 3.99957 12 3.99998H3.33331ZM7.66665 8.47465L2.08931 4.85331C2.03017 5.00643 1.99988 5.16917 1.99998 5.33331V11.3333C1.99998 11.6869 2.14046 12.0261 2.3905 12.2761C2.64055 12.5262 2.97969 12.6666 3.33331 12.6666H12C12.3536 12.6666 12.6927 12.5262 12.9428 12.2761C13.1928 12.0261 13.3333 11.6869 13.3333 11.3333V5.33331C13.3333 5.16398 13.302 5.00198 13.244 4.85331L7.66665 8.47398V8.47465Z" fill="#666666"/>
</svg>
