<svg width="30" height="30" viewBox="0 0 30 30" fill="none" xmlns="http://www.w3.org/2000/svg">
<circle cx="15" cy="15" r="14.5" stroke="#666666"/>
<g clip-path="url(#clip0)">
<path d="M14.5865 6.75258C13.2624 6.76857 10.4156 6.98616 8.82337 8.44693C7.63898 9.62049 7.22545 11.3556 7.17698 13.5011C7.13676 15.6389 7.08829 19.6535 10.9581 20.7466V22.4116C10.9581 22.4116 10.9338 23.0778 11.3742 23.2144C11.9166 23.3861 12.2255 22.8736 12.7411 22.3229L13.7027 21.2355C16.3505 21.4556 18.3784 20.9483 18.612 20.873C19.1493 20.7013 22.1755 20.3146 22.67 16.2994C23.1773 12.1527 22.423 9.54005 21.0612 8.35824H21.053C20.642 7.97977 18.9905 6.7763 15.3006 6.7629C15.3006 6.7629 15.0269 6.74433 14.5865 6.75207V6.75258ZM14.6319 7.91841C15.0078 7.91583 15.2362 7.93182 15.2362 7.93182C18.3593 7.94007 19.85 8.88005 20.2017 9.19665C21.3484 10.1794 21.9393 12.5348 21.5067 15.9967C21.0958 19.3534 18.6414 19.5659 18.1871 19.7108C17.9938 19.7726 16.2076 20.213 13.9574 20.0681C13.9574 20.0681 12.2817 22.0904 11.7578 22.6111C11.6748 22.7024 11.5778 22.7292 11.516 22.7158C11.4273 22.6942 11.4005 22.5843 11.4056 22.4338L11.4216 19.6705C8.13965 18.763 8.33301 15.3388 8.36807 13.5501C8.40829 11.7614 8.74396 10.298 9.74324 9.30699C11.0885 8.09063 13.5058 7.92666 14.6309 7.91841H14.6319ZM14.8794 9.7066C14.8524 9.70633 14.8256 9.7114 14.8005 9.72154C14.7755 9.73167 14.7527 9.74666 14.7335 9.76564C14.7143 9.78462 14.699 9.80722 14.6885 9.83213C14.6781 9.85704 14.6727 9.88377 14.6726 9.91079C14.6726 10.0263 14.7665 10.1176 14.8794 10.1176C15.3906 10.1078 15.8987 10.1994 16.3744 10.387C16.8501 10.5746 17.2839 10.8546 17.6509 11.2107C18.4001 11.9382 18.7651 12.9159 18.7791 14.1941C18.7791 14.307 18.8703 14.4009 18.9858 14.4009V14.3926C19.0403 14.3927 19.0925 14.3714 19.1313 14.3331C19.17 14.2949 19.192 14.2428 19.1926 14.1884C19.2176 13.5868 19.1201 12.9863 18.9058 12.4235C18.6916 11.8607 18.3651 11.3474 17.9463 10.9147C17.1301 10.117 16.0957 9.70608 14.8794 9.70608V9.7066ZM12.1615 10.1794C12.0156 10.1581 11.8667 10.1874 11.7397 10.2624H11.7289C11.4341 10.4352 11.1685 10.6537 10.9421 10.9096C10.7539 11.1271 10.6518 11.3473 10.625 11.5592C10.609 11.6856 10.6198 11.8119 10.6574 11.9326L10.6709 11.9408C10.8828 12.5637 11.1597 13.1628 11.4979 13.7269C11.9336 14.5194 12.4698 15.2523 13.0933 15.9075L13.1118 15.9343L13.1412 15.956L13.1598 15.9776L13.1814 15.9962C13.839 16.6214 14.5737 17.1602 15.3677 17.5993C16.2752 18.0932 16.8259 18.3268 17.1564 18.4238V18.4289C17.2533 18.4583 17.3415 18.4717 17.4302 18.4717C17.7119 18.4511 17.9785 18.3367 18.1876 18.1469C18.4424 17.9203 18.6583 17.6537 18.827 17.3574V17.3523C18.9853 17.0543 18.9317 16.7722 18.7033 16.5814C18.2458 16.1816 17.7511 15.8264 17.226 15.5208C16.8743 15.33 16.517 15.4455 16.3721 15.6389L16.0633 16.0282C15.905 16.2215 15.6172 16.1947 15.6172 16.1947L15.609 16.1999C13.4635 15.6518 12.8911 13.4794 12.8911 13.4794C12.8911 13.4794 12.8643 13.184 13.0628 13.0334L13.4496 12.722C13.6347 12.5714 13.7636 12.2146 13.5651 11.8624C13.2616 11.3366 12.9072 10.8418 12.507 10.3852C12.4195 10.2775 12.2968 10.2043 12.1605 10.1784L12.1615 10.1794ZM15.2362 10.792C14.9624 10.792 14.9624 11.2055 15.2388 11.2055C15.5792 11.211 15.9153 11.2836 16.2277 11.4191C16.5401 11.5545 16.8227 11.7502 17.0594 11.9949C17.2754 12.2332 17.4413 12.5123 17.5475 12.8158C17.6536 13.1194 17.6977 13.4411 17.6772 13.762C17.6781 13.8163 17.7003 13.8681 17.7389 13.9062C17.7776 13.9444 17.8296 13.9659 17.8839 13.9662L17.8922 13.977C17.9469 13.9766 17.9992 13.9547 18.0379 13.916C18.0766 13.8773 18.0985 13.825 18.0989 13.7702C18.1175 12.9509 17.8628 12.2636 17.3631 11.7129C16.8609 11.1622 16.1602 10.8534 15.2656 10.792H15.2362ZM15.575 11.9037C15.2929 11.8954 15.2821 12.3172 15.5616 12.3255C16.2411 12.3605 16.5711 12.7039 16.6145 13.4103C16.6154 13.464 16.6373 13.5151 16.6755 13.5528C16.7136 13.5904 16.765 13.6117 16.8186 13.6119H16.8269C16.8545 13.6108 16.8815 13.6041 16.9065 13.5923C16.9315 13.5806 16.9538 13.564 16.9723 13.5435C16.9908 13.523 17.005 13.499 17.0141 13.473C17.0232 13.4469 17.0271 13.4193 17.0254 13.3918C16.9769 12.4709 16.4747 11.9521 15.5832 11.9042H15.575V11.9037Z" fill="#666666"/>
</g>
<defs>
<clipPath id="clip0">
<rect x="6.75" y="6.75" width="16.5" height="16.5" fill="white"/>
</clipPath>
</defs>
</svg>
