<svg width="30" height="30" viewBox="0 0 30 30" fill="none" xmlns="http://www.w3.org/2000/svg">
<circle cx="15" cy="15" r="14.5" stroke="#666666"/>
<path fill-rule="evenodd" clip-rule="evenodd" d="M20.2024 9.82684C19.5267 9.14668 18.7227 8.60737 17.8371 8.24014C16.9515 7.87292 16.0018 7.68509 15.043 7.68752C11.0228 7.68752 7.75003 10.9595 7.74841 14.9813C7.74841 16.2667 8.08397 17.5212 8.72178 18.6278L7.68747 22.4068L11.5542 21.392C12.6237 21.9742 13.822 22.2795 15.0398 22.28H15.043C19.0625 22.28 22.3352 19.0081 22.3368 14.9862C22.3396 14.0279 22.1524 13.0785 21.786 12.1929C21.4197 11.3073 20.8814 10.5031 20.2024 9.82684ZM15.043 21.0491H15.0406C13.9547 21.0492 12.8888 20.757 11.9547 20.2033L11.7337 20.0717L9.43922 20.6737L10.051 18.4369L9.90722 18.2078C9.30011 17.2412 8.97872 16.1227 8.98016 14.9813C8.98178 11.6387 11.7012 8.91927 15.0455 8.91927C15.8419 8.9175 16.6308 9.07371 17.3665 9.37887C18.1022 9.68402 18.77 10.132 19.3314 10.697C19.8958 11.2593 20.3431 11.9279 20.6476 12.6641C20.952 13.4003 21.1075 14.1895 21.1051 14.9862C21.1035 18.3288 18.384 21.0491 15.043 21.0491ZM18.3686 16.508C18.1858 16.4162 17.2904 15.9758 17.123 15.9149C16.9565 15.854 16.8354 15.8239 16.7135 16.0059C16.5917 16.1879 16.2423 16.5982 16.1358 16.7201C16.0294 16.842 15.923 16.8566 15.741 16.7656C15.559 16.6746 14.9715 16.482 14.2752 15.8613C13.7333 15.3778 13.3677 14.7815 13.2612 14.5986C13.1548 14.4158 13.2498 14.3175 13.3417 14.2265C13.4237 14.1453 13.5237 14.0136 13.6147 13.9072C13.7057 13.8008 13.7357 13.7252 13.7967 13.6033C13.8576 13.4815 13.8275 13.375 13.7812 13.284C13.7357 13.1922 13.3709 12.2952 13.219 11.9304C13.0719 11.577 12.9216 11.6241 12.8095 11.6192C12.6933 11.6145 12.5771 11.6123 12.4609 11.6127C12.3685 11.6151 12.2776 11.6365 12.1938 11.6756C12.1101 11.7148 12.0353 11.7708 11.9742 11.8402C11.8068 12.023 11.3364 12.4634 11.3364 13.3604C11.3364 14.2574 11.9897 15.1243 12.0807 15.2462C12.1717 15.3681 13.366 17.2084 15.1942 17.9981C15.6297 18.1858 15.9693 18.298 16.2333 18.3825C16.6697 18.5214 17.067 18.5011 17.3814 18.4548C17.7316 18.4028 18.4596 18.0144 18.6115 17.5886C18.7635 17.1629 18.7635 16.7981 18.718 16.7217C18.6725 16.6453 18.5498 16.599 18.3686 16.508Z" fill="#666666"/>
</svg>
