<svg width="30" height="30" viewBox="0 0 30 30" fill="none" xmlns="http://www.w3.org/2000/svg">
<circle cx="15" cy="15" r="14.5" stroke="#8E24AA"/>
<g clip-path="url(#clip0)">
<path d="M14.5952 6.92563C13.2989 6.94128 10.5118 7.15431 8.95296 8.58443C7.79342 9.73337 7.38856 11.432 7.34111 13.5326C7.30173 15.6255 7.25428 19.5559 11.0429 20.6261V22.2561C11.0429 22.2561 11.0191 22.9083 11.4502 23.0421C11.9813 23.2102 12.2837 22.7084 12.7885 22.1693L13.73 21.1047C16.3221 21.3202 18.3076 20.8235 18.5362 20.7498C19.0622 20.5817 22.025 20.2031 22.5091 16.2721C23.0058 12.2125 22.2673 9.65462 20.9341 8.4976H20.926C20.5237 8.12707 18.9068 6.94885 15.2944 6.93573C15.2944 6.93573 15.0263 6.91755 14.5952 6.92512V6.92563ZM14.6396 8.067C15.0076 8.06448 15.2313 8.08012 15.2313 8.08012C18.2889 8.0882 19.7483 9.00847 20.0926 9.31842C21.2152 10.2806 21.7938 12.5865 21.3702 15.9758C20.9679 19.2621 18.565 19.4701 18.1203 19.612C17.931 19.6725 16.1823 20.1036 13.9793 19.9618C13.9793 19.9618 12.3387 21.9416 11.8258 22.4515C11.7445 22.5408 11.6496 22.5671 11.5891 22.554C11.5022 22.5328 11.476 22.4252 11.481 22.2778L11.4967 19.5726C8.28359 18.6841 8.47289 15.3317 8.50722 13.5805C8.54659 11.8293 8.87522 10.3967 9.85354 9.42645C11.1706 8.23561 13.5371 8.07508 14.6386 8.067H14.6396ZM14.8819 9.81767C14.8555 9.81741 14.8292 9.82238 14.8047 9.8323C14.7802 9.84222 14.7579 9.85689 14.7391 9.87547C14.7203 9.89406 14.7053 9.91618 14.6951 9.94057C14.6849 9.96496 14.6796 9.99113 14.6795 10.0176C14.6795 10.1307 14.7714 10.22 14.8819 10.22C15.3824 10.2105 15.8799 10.3002 16.3456 10.4838C16.8113 10.6675 17.236 10.9416 17.5953 11.2902C18.3288 12.0025 18.6862 12.9596 18.6998 14.211C18.6998 14.3216 18.7891 14.4134 18.9022 14.4134V14.4054C18.9555 14.4055 19.0067 14.3846 19.0446 14.3471C19.0825 14.3097 19.1041 14.2588 19.1046 14.2055C19.1292 13.6164 19.0336 13.0286 18.8239 12.4776C18.6141 11.9266 18.2945 11.4241 17.8845 11.0004C17.0854 10.2195 16.0728 9.81717 14.8819 9.81717V9.81767ZM12.2211 10.2806C12.0782 10.2597 11.9325 10.2884 11.8082 10.3619H11.7976C11.5089 10.531 11.2489 10.7449 11.0272 10.9954C10.843 11.2084 10.743 11.424 10.7168 11.6314C10.7011 11.7551 10.7117 11.8788 10.7486 11.9969L10.7617 12.005C10.9692 12.6148 11.2402 13.2014 11.5714 13.7537C11.998 14.5295 12.5229 15.2471 13.1333 15.8885L13.1514 15.9147L13.1802 15.9359L13.1984 15.9571L13.2196 15.9753C13.8633 16.5874 14.5826 17.1149 15.36 17.5448C16.2484 18.0284 16.7876 18.257 17.1112 18.352V18.357C17.2061 18.3858 17.2924 18.3989 17.3792 18.3989C17.655 18.3787 17.916 18.2667 18.1208 18.0809C18.3702 17.8591 18.5816 17.598 18.7467 17.308V17.303C18.9017 17.0112 18.8492 16.7351 18.6256 16.5483C18.1777 16.1568 17.6934 15.8091 17.1793 15.5099C16.835 15.3231 16.4852 15.4362 16.3433 15.6255L16.041 16.0066C15.886 16.1959 15.6043 16.1697 15.6043 16.1697L15.5962 16.1747C13.4957 15.6381 12.9354 13.5114 12.9354 13.5114C12.9354 13.5114 12.9091 13.2221 13.1035 13.0747L13.4821 12.7698C13.6633 12.6224 13.7895 12.2731 13.5952 11.9283C13.298 11.4134 12.9511 10.929 12.5593 10.482C12.4737 10.3766 12.3535 10.3049 12.2201 10.2796L12.2211 10.2806ZM15.2313 10.8803C14.9632 10.8803 14.9632 11.2851 15.2338 11.2851C15.5671 11.2906 15.8961 11.3616 16.2019 11.4942C16.5078 11.6268 16.7845 11.8184 17.0163 12.058C17.2277 12.2912 17.3901 12.5645 17.494 12.8617C17.5979 13.1588 17.6411 13.4738 17.621 13.788C17.6219 13.8412 17.6436 13.8918 17.6815 13.9292C17.7193 13.9666 17.7703 13.9876 17.8234 13.9879L17.8315 13.9985C17.8851 13.9981 17.9363 13.9766 17.9742 13.9388C18.0121 13.9009 18.0335 13.8496 18.0339 13.7961C18.0521 12.9939 17.8027 12.321 17.3136 11.7819C16.8219 11.2427 16.1359 10.9404 15.26 10.8803H15.2313ZM15.5629 11.9687C15.2868 11.9606 15.2762 12.3735 15.5498 12.3816C16.2151 12.4159 16.5382 12.7521 16.5806 13.4437C16.5815 13.4962 16.603 13.5463 16.6403 13.5831C16.6777 13.62 16.728 13.6408 16.7805 13.6411H16.7886C16.8156 13.6399 16.8421 13.6334 16.8665 13.6219C16.891 13.6104 16.9129 13.5941 16.931 13.5741C16.9491 13.554 16.963 13.5305 16.9719 13.505C16.9808 13.4795 16.9846 13.4525 16.9829 13.4255C16.9355 12.5239 16.4438 12.0161 15.571 11.9692H15.5629V11.9687Z" fill="#8E24AA"/>
</g>
<defs>
<clipPath id="clip0">
<rect x="6.9231" y="6.9231" width="16.1538" height="16.1538" fill="white"/>
</clipPath>
</defs>
</svg>
