<svg width="60" height="60" viewBox="0 0 60 60" fill="none" xmlns="http://www.w3.org/2000/svg">
<circle cx="30" cy="30" r="29" stroke="#8E24AA" stroke-width="2"/>
<path d="M29.1981 14.0047C26.6301 14.0357 21.1091 14.4577 18.0211 17.2907C15.7241 19.5667 14.9221 22.9317 14.8281 27.0927C14.7501 31.2387 14.6561 39.0247 22.1611 41.1447V44.3737C22.1611 44.3737 22.1141 45.6657 22.9681 45.9307C24.0201 46.2637 24.6191 45.2697 25.6191 44.2017L27.4841 42.0927C32.6191 42.5197 36.5521 41.5357 37.0051 41.3897C38.0471 41.0567 43.9161 40.3067 44.8751 32.5197C45.8591 24.4777 44.3961 19.4107 41.7551 17.1187H41.7391C40.9421 16.3847 37.7391 14.0507 30.5831 14.0247C30.5831 14.0247 30.0521 13.9887 29.1981 14.0037V14.0047ZM29.2861 16.2657C30.0151 16.2607 30.4581 16.2917 30.4581 16.2917C36.5151 16.3077 39.4061 18.1307 40.0881 18.7447C42.3121 20.6507 43.4581 25.2187 42.6191 31.9327C41.8221 38.4427 37.0621 38.8547 36.1811 39.1357C35.8061 39.2557 32.3421 40.1097 27.9781 39.8287C27.9781 39.8287 24.7281 43.7507 23.7121 44.7607C23.5511 44.9377 23.3631 44.9897 23.2431 44.9637C23.0711 44.9217 23.0191 44.7087 23.0291 44.4167L23.0601 39.0577C16.6951 37.2977 17.0701 30.6567 17.1381 27.1877C17.2161 23.7187 17.8671 20.8807 19.8051 18.9587C22.4141 16.5997 27.1021 16.2817 29.2841 16.2657H29.2861ZM29.7661 19.7337C29.7137 19.7331 29.6617 19.743 29.6131 19.7626C29.5646 19.7823 29.5204 19.8113 29.4831 19.8482C29.4458 19.885 29.4162 19.9288 29.3959 19.9771C29.3757 20.0254 29.3652 20.0773 29.3651 20.1297C29.3651 20.3537 29.5471 20.5307 29.7661 20.5307C30.7576 20.5118 31.743 20.6894 32.6655 21.0533C33.588 21.4171 34.4294 21.96 35.1411 22.6507C36.5941 24.0617 37.3021 25.9577 37.3291 28.4367C37.3291 28.6557 37.5061 28.8377 37.7301 28.8377V28.8217C37.8356 28.8219 37.937 28.7805 38.0121 28.7063C38.0873 28.6321 38.13 28.5312 38.1311 28.4257C38.1796 27.2588 37.9904 26.0943 37.5749 25.0028C37.1594 23.9114 36.5263 22.9158 35.7141 22.0767C34.1311 20.5297 32.1251 19.7327 29.7661 19.7327V19.7337ZM24.4951 20.6507C24.212 20.6093 23.9233 20.6661 23.6771 20.8117H23.6561C23.0843 21.1468 22.5693 21.5704 22.1301 22.0667C21.7651 22.4887 21.5671 22.9157 21.5151 23.3267C21.4841 23.5717 21.5051 23.8167 21.5781 24.0507L21.6041 24.0667C22.0151 25.2747 22.5521 26.4367 23.2081 27.5307C24.0531 29.0676 25.093 30.489 26.3021 31.7597L26.3381 31.8117L26.3951 31.8537L26.4311 31.8957L26.4731 31.9317C27.7483 33.1443 29.1731 34.189 30.7131 35.0407C32.4731 35.9987 33.5411 36.4517 34.1821 36.6397V36.6497C34.3701 36.7067 34.5411 36.7327 34.7131 36.7327C35.2593 36.6926 35.7765 36.4708 36.1821 36.1027C36.6761 35.6633 37.0949 35.1462 37.4221 34.5717V34.5617C37.7291 33.9837 37.6251 33.4367 37.1821 33.0667C36.2949 32.2912 35.3355 31.6024 34.3171 31.0097C33.6351 30.6397 32.9421 30.8637 32.6611 31.2387L32.0621 31.9937C31.7551 32.3687 31.1971 32.3167 31.1971 32.3167L31.1811 32.3267C27.0201 31.2637 25.9101 27.0507 25.9101 27.0507C25.9101 27.0507 25.8581 26.4777 26.2431 26.1857L26.9931 25.5817C27.3521 25.2897 27.6021 24.5977 27.2171 23.9147C26.6285 22.8948 25.9412 21.9352 25.1651 21.0497C24.9954 20.8409 24.7574 20.6988 24.4931 20.6487L24.4951 20.6507ZM30.4581 21.8387C29.9271 21.8387 29.9271 22.6407 30.4631 22.6407C31.1233 22.6514 31.775 22.7921 32.3809 23.0548C32.9868 23.3175 33.5349 23.697 33.9941 24.1717C34.4129 24.6337 34.7347 25.175 34.9405 25.7637C35.1463 26.3524 35.2318 26.9763 35.1921 27.5987C35.1939 27.704 35.2369 27.8044 35.3118 27.8784C35.3868 27.9524 35.4877 27.9942 35.5931 27.9947L35.6091 28.0157C35.7152 28.0149 35.8167 27.9724 35.8917 27.8973C35.9668 27.8223 36.0093 27.7208 36.0101 27.6147C36.0461 26.0257 35.5521 24.6927 34.5831 23.6247C33.6091 22.5567 32.2501 21.9577 30.5151 21.8387H30.4581ZM31.1151 23.9947C30.5681 23.9787 30.5471 24.7967 31.0891 24.8127C32.4071 24.8807 33.0471 25.5467 33.1311 26.9167C33.1329 27.0207 33.1754 27.1198 33.2494 27.1929C33.3234 27.266 33.423 27.3072 33.5271 27.3077H33.5431C33.5965 27.3054 33.649 27.2924 33.6974 27.2696C33.7459 27.2469 33.7893 27.2146 33.8251 27.1749C33.8609 27.1351 33.8885 27.0887 33.9062 27.0381C33.9239 26.9876 33.9313 26.9341 33.9281 26.8807C33.8341 25.0947 32.8601 24.0887 31.1311 23.9957H31.1151V23.9947Z" fill="#8E24AA"/>
</svg>
