<svg width="60" height="60" viewBox="0 0 60 60" fill="none" xmlns="http://www.w3.org/2000/svg">
<circle cx="30" cy="30" r="29" stroke="#35D83C" stroke-width="2"/>
<path fill-rule="evenodd" clip-rule="evenodd" d="M39.6045 20.4495C38.357 19.1939 36.8728 18.1982 35.2378 17.5203C33.6028 16.8423 31.8495 16.4955 30.0795 16.5C22.6575 16.5 16.6155 22.5405 16.6125 29.9655C16.6125 32.3385 17.232 34.6545 18.4095 36.6975L16.5 43.674L23.6385 41.8005C25.6131 42.8754 27.8253 43.4391 30.0735 43.44H30.0795C37.5 43.44 43.542 37.3995 43.545 29.9745C43.5501 28.2053 43.2045 26.4525 42.5281 24.8176C41.8518 23.1827 40.8581 21.6981 39.6045 20.4495ZM30.0795 41.1675H30.075C28.0703 41.1677 26.1024 40.6284 24.378 39.606L23.97 39.363L19.734 40.4745L20.8635 36.345L20.598 35.922C19.4772 34.1377 18.8838 32.0727 18.8865 29.9655C18.8895 23.7945 23.91 18.774 30.084 18.774C31.5544 18.7708 33.0108 19.0592 34.369 19.6225C35.7272 20.1859 36.9601 21.013 37.9965 22.056C39.0384 23.0941 39.8643 24.3284 40.4263 25.6875C40.9884 27.0467 41.2755 28.5038 41.271 29.9745C41.268 36.1455 36.2475 41.1675 30.0795 41.1675ZM36.219 32.784C35.8815 32.6145 34.2285 31.8015 33.9195 31.689C33.612 31.5765 33.3885 31.521 33.1635 31.857C32.9385 32.193 32.2935 32.9505 32.097 33.1755C31.9005 33.4005 31.704 33.4275 31.368 33.2595C31.032 33.0915 29.9475 32.736 28.662 31.59C27.6615 30.6975 26.9865 29.5965 26.79 29.259C26.5935 28.9215 26.769 28.74 26.9385 28.572C27.09 28.422 27.2745 28.179 27.4425 27.9825C27.6105 27.786 27.666 27.6465 27.7785 27.4215C27.891 27.1965 27.8355 27 27.75 26.832C27.666 26.6625 26.9925 25.0065 26.712 24.333C26.4405 23.6805 26.163 23.7675 25.956 23.7585C25.7416 23.7498 25.5271 23.7458 25.3125 23.7465C25.1419 23.7509 24.974 23.7904 24.8194 23.8627C24.6648 23.935 24.5268 24.0384 24.414 24.1665C24.105 24.504 23.2365 25.317 23.2365 26.973C23.2365 28.629 24.4425 30.2295 24.6105 30.4545C24.7785 30.6795 26.9835 34.077 30.3585 35.535C31.1625 35.8815 31.7895 36.0885 32.277 36.2445C33.0825 36.501 33.816 36.4635 34.3965 36.378C35.043 36.282 36.387 35.565 36.6675 34.779C36.948 33.993 36.948 33.3195 36.864 33.1785C36.78 33.0375 36.5535 32.952 36.219 32.784Z" fill="#35D83C"/>
</svg>
