<svg width="60" height="60" viewBox="0 0 60 60" fill="none" xmlns="http://www.w3.org/2000/svg">
<circle cx="30" cy="30" r="29" stroke="#C4C4C4" stroke-width="2"/>
<path d="M29.198 14.0047C26.63 14.0357 21.109 14.4577 18.021 17.2907C15.724 19.5667 14.922 22.9317 14.828 27.0927C14.75 31.2387 14.656 39.0247 22.161 41.1447V44.3737C22.161 44.3737 22.114 45.6657 22.968 45.9307C24.02 46.2637 24.619 45.2697 25.619 44.2017L27.484 42.0927C32.619 42.5197 36.552 41.5357 37.005 41.3897C38.047 41.0567 43.916 40.3067 44.875 32.5197C45.859 24.4777 44.396 19.4107 41.755 17.1187H41.739C40.942 16.3847 37.739 14.0507 30.583 14.0247C30.583 14.0247 30.052 13.9887 29.198 14.0037V14.0047ZM29.286 16.2657C30.015 16.2607 30.458 16.2917 30.458 16.2917C36.515 16.3077 39.406 18.1307 40.088 18.7447C42.312 20.6507 43.458 25.2187 42.619 31.9327C41.822 38.4427 37.062 38.8547 36.181 39.1357C35.806 39.2557 32.342 40.1097 27.978 39.8287C27.978 39.8287 24.728 43.7507 23.712 44.7607C23.551 44.9377 23.363 44.9897 23.243 44.9637C23.071 44.9217 23.019 44.7087 23.029 44.4167L23.06 39.0577C16.695 37.2977 17.07 30.6567 17.138 27.1877C17.216 23.7187 17.867 20.8807 19.805 18.9587C22.414 16.5997 27.102 16.2817 29.284 16.2657H29.286ZM29.766 19.7337C29.7136 19.7331 29.6616 19.743 29.6131 19.7626C29.5645 19.7823 29.5203 19.8113 29.483 19.8482C29.4458 19.885 29.4161 19.9288 29.3959 19.9771C29.3756 20.0254 29.3651 20.0773 29.365 20.1297C29.365 20.3537 29.547 20.5307 29.766 20.5307C30.7575 20.5118 31.7429 20.6894 32.6654 21.0533C33.588 21.4171 34.4293 21.96 35.141 22.6507C36.594 24.0617 37.302 25.9577 37.329 28.4367C37.329 28.6557 37.506 28.8377 37.73 28.8377V28.8217C37.8356 28.8219 37.937 28.7805 38.0121 28.7063C38.0872 28.6321 38.1299 28.5312 38.131 28.4257C38.1796 27.2588 37.9903 26.0943 37.5748 25.0028C37.1593 23.9114 36.5262 22.9158 35.714 22.0767C34.131 20.5297 32.125 19.7327 29.766 19.7327V19.7337ZM24.495 20.6507C24.2119 20.6093 23.9233 20.6661 23.677 20.8117H23.656C23.0843 21.1468 22.5692 21.5704 22.13 22.0667C21.765 22.4887 21.567 22.9157 21.515 23.3267C21.484 23.5717 21.505 23.8167 21.578 24.0507L21.604 24.0667C22.015 25.2747 22.552 26.4367 23.208 27.5307C24.053 29.0676 25.0929 30.489 26.302 31.7597L26.338 31.8117L26.395 31.8537L26.431 31.8957L26.473 31.9317C27.7482 33.1443 29.1731 34.189 30.713 35.0407C32.473 35.9987 33.541 36.4517 34.182 36.6397V36.6497C34.37 36.7067 34.541 36.7327 34.713 36.7327C35.2593 36.6926 35.7764 36.4708 36.182 36.1027C36.676 35.6633 37.0949 35.1462 37.422 34.5717V34.5617C37.729 33.9837 37.625 33.4367 37.182 33.0667C36.2948 32.2912 35.3354 31.6024 34.317 31.0097C33.635 30.6397 32.942 30.8637 32.661 31.2387L32.062 31.9937C31.755 32.3687 31.197 32.3167 31.197 32.3167L31.181 32.3267C27.02 31.2637 25.91 27.0507 25.91 27.0507C25.91 27.0507 25.858 26.4777 26.243 26.1857L26.993 25.5817C27.352 25.2897 27.602 24.5977 27.217 23.9147C26.6284 22.8948 25.9411 21.9352 25.165 21.0497C24.9953 20.8409 24.7573 20.6988 24.493 20.6487L24.495 20.6507ZM30.458 21.8387C29.927 21.8387 29.927 22.6407 30.463 22.6407C31.1233 22.6514 31.775 22.7921 32.3808 23.0548C32.9867 23.3175 33.5349 23.697 33.994 24.1717C34.4128 24.6337 34.7347 25.175 34.9404 25.7637C35.1462 26.3524 35.2318 26.9763 35.192 27.5987C35.1938 27.704 35.2368 27.8044 35.3118 27.8784C35.3867 27.9524 35.4877 27.9942 35.593 27.9947L35.609 28.0157C35.7151 28.0149 35.8166 27.9724 35.8917 27.8973C35.9667 27.8223 36.0092 27.7208 36.01 27.6147C36.046 26.0257 35.552 24.6927 34.583 23.6247C33.609 22.5567 32.25 21.9577 30.515 21.8387H30.458ZM31.115 23.9947C30.568 23.9787 30.547 24.7967 31.089 24.8127C32.407 24.8807 33.047 25.5467 33.131 26.9167C33.1328 27.0207 33.1753 27.1198 33.2493 27.1929C33.3233 27.266 33.423 27.3072 33.527 27.3077H33.543C33.5965 27.3054 33.649 27.2924 33.6974 27.2696C33.7458 27.2469 33.7892 27.2146 33.825 27.1749C33.8609 27.1351 33.8884 27.0887 33.9061 27.0381C33.9238 26.9876 33.9312 26.9341 33.928 26.8807C33.834 25.0947 32.86 24.0887 31.131 23.9957H31.115V23.9947Z" fill="#C4C4C4"/>
</svg>
